<svg width="50" height="50" viewBox="0 0 50 50" fill="none" xmlns="http://www.w3.org/2000/svg">
<path d="M25 45.8333C36.5059 45.8333 45.8333 36.5059 45.8333 25C45.8333 13.494 36.5059 4.16663 25 4.16663C13.4941 4.16663 4.16666 13.494 4.16666 25C4.16666 36.5059 13.4941 45.8333 25 45.8333Z" fill="url(#paint0_radial_13_188)"/>
<path opacity="0.5" d="M25 45.8333C36.5059 45.8333 45.8333 36.5059 45.8333 25C45.8333 13.494 36.5059 4.16663 25 4.16663C13.4941 4.16663 4.16666 13.494 4.16666 25C4.16666 36.5059 13.4941 45.8333 25 45.8333Z" fill="url(#paint1_radial_13_188)"/>
<path d="M20.4166 14.2055C20.4166 13.3721 19.5155 12.8489 17.9651 12.8489C16.6473 12.8489 13.75 13.5756 11.7538 16.1435C11.3856 16.6183 11.9476 16.8799 12.3159 16.5698C13.5465 15.5233 16.8314 14.1861 19.3992 14.4671C20.4263 14.5834 20.4166 14.2055 20.4166 14.2055Z" fill="url(#paint2_linear_13_188)"/>
<path d="M18.1977 24.331C19.3055 24.331 20.2035 22.9731 20.2035 21.2981C20.2035 19.623 19.3055 18.2651 18.1977 18.2651C17.0899 18.2651 16.1919 19.623 16.1919 21.2981C16.1919 22.9731 17.0899 24.331 18.1977 24.331Z" fill="url(#paint3_radial_13_188)"/>
<path d="M18.1977 19.2828C19.0601 19.2828 19.8062 20.029 20.2035 21.1433C20.1745 19.5057 19.2927 18.1879 18.1977 18.1879C17.1027 18.1879 16.221 19.5057 16.1919 21.1433C16.5892 20.0386 17.3353 19.2828 18.1977 19.2828Z" fill="url(#paint4_linear_13_188)"/>
<path d="M29.5832 14.2052C29.5832 13.3719 30.4844 12.8486 32.0348 12.8486C33.3526 12.8486 36.2499 13.5754 38.246 16.1432C38.6143 16.618 38.0522 16.8796 37.684 16.5696C36.4534 15.5231 33.1685 14.1858 30.6007 14.4669C29.5735 14.5831 29.5832 14.2052 29.5832 14.2052Z" fill="url(#paint5_linear_13_188)"/>
<path d="M31.8024 24.3315C32.9102 24.3315 33.8082 22.9736 33.8082 21.2986C33.8082 19.6235 32.9102 18.2656 31.8024 18.2656C30.6946 18.2656 29.7966 19.6235 29.7966 21.2986C29.7966 22.9736 30.6946 24.3315 31.8024 24.3315Z" fill="url(#paint6_radial_13_188)"/>
<path d="M31.8024 19.2828C30.94 19.2828 30.1939 20.029 29.7966 21.1433C29.8256 19.5057 30.7074 18.1879 31.8024 18.1879C32.8973 18.1879 33.7791 19.5057 33.8082 21.1433C33.4109 20.0386 32.6648 19.2828 31.8024 19.2828Z" fill="url(#paint7_linear_13_188)"/>
<path d="M39.0698 28.527C38.9147 28.4688 38.7403 28.4591 38.5853 28.5076C34.186 29.7673 29.6221 30.3971 25.0097 30.3971C20.3973 30.3971 15.8236 29.7576 11.4341 28.5076C11.2694 28.4591 11.1046 28.4688 10.9496 28.527C10.4748 28.7208 9.71898 29.4378 10.717 32.1801V32.1898C12.1899 35.6975 16.095 41.8603 25 41.8603C33.8857 41.8603 37.7907 35.6878 39.3023 32.1898C40.2907 29.4378 39.5446 28.7208 39.0698 28.527Z" fill="url(#paint8_radial_13_188)"/>
<path d="M25.0001 40.8816C28.692 40.8816 31.4633 39.7478 33.537 38.1974C31.2598 37.1703 28.4497 36.5017 25.0001 36.5017C21.5505 36.5017 18.7404 37.18 16.4633 38.2168C18.537 39.7478 21.3083 40.8816 25.0001 40.8816Z" fill="url(#paint9_radial_13_188)"/>
<path d="M38.7887 28.4689C38.7596 28.4689 38.7305 28.4689 38.6918 28.4786C34.2538 29.7576 29.6511 30.4069 24.9902 30.4069C20.3294 30.4069 15.7266 29.7576 11.2887 28.4786C11.2596 28.4689 11.2305 28.4689 11.1918 28.4689C10.8914 28.4979 9.45726 28.7983 10.6879 32.1898V32.1995C11.2887 33.6142 12.2867 35.465 13.8468 37.1607C12.3836 35.4262 14.1859 34.4669 17.3933 34.8545C20.6007 35.2421 24.9902 35.2518 24.9902 35.2518C24.9902 35.2518 29.3701 35.2421 32.5871 34.8545C35.7945 34.4669 37.5968 35.4262 36.1336 37.1607C37.6937 35.465 38.6918 33.6142 39.2925 32.1995V32.1898C40.5232 28.7886 39.089 28.4883 38.7887 28.4689Z" fill="url(#paint10_linear_13_188)"/>
<path d="M36.3178 33.2362C37.5388 32.9746 38.4593 31.9571 38.5756 30.7071L38.6919 29.4862C34.2539 30.7362 29.6512 31.3757 25 31.3757C20.3488 31.3757 15.7461 30.7362 11.3081 29.4862L11.4244 30.7071C11.5407 31.9474 12.4612 32.9649 13.6822 33.2362C17.3837 34.0405 21.1822 34.4378 25 34.4378C28.8178 34.4378 32.6163 34.0308 36.3178 33.2362Z" fill="url(#paint11_radial_13_188)"/>
<defs>
<radialGradient id="paint0_radial_13_188" cx="0" cy="0" r="1" gradientUnits="userSpaceOnUse" gradientTransform="translate(20.901 16.5569) scale(25.1327)">
<stop stop-color="#FFDF30"/>
<stop offset="1" stop-color="#FFB82E"/>
</radialGradient>
<radialGradient id="paint1_radial_13_188" cx="0" cy="0" r="1" gradientUnits="userSpaceOnUse" gradientTransform="translate(20.901 16.5569) scale(19.773)">
<stop stop-color="#FFE95F"/>
<stop offset="1" stop-color="#FFBB47" stop-opacity="0"/>
</radialGradient>
<linearGradient id="paint2_linear_13_188" x1="16.0235" y1="15.6021" x2="16.0235" y2="13.4069" gradientUnits="userSpaceOnUse">
<stop offset="0.00132565" stop-color="#3C2200"/>
<stop offset="1" stop-color="#7A4400"/>
</linearGradient>
<radialGradient id="paint3_radial_13_188" cx="0" cy="0" r="1" gradientUnits="userSpaceOnUse" gradientTransform="translate(17.5897 21.3687) rotate(73.8539) scale(2.9436 1.90446)">
<stop offset="0.00132565" stop-color="#7A4400"/>
<stop offset="1" stop-color="#643800"/>
</radialGradient>
<linearGradient id="paint4_linear_13_188" x1="18.1982" y1="18.2434" x2="18.1982" y2="21.0707" gradientUnits="userSpaceOnUse">
<stop offset="0.00132565" stop-color="#3C2200"/>
<stop offset="1" stop-color="#512D00"/>
</linearGradient>
<linearGradient id="paint5_linear_13_188" x1="33.9763" y1="15.6019" x2="33.9763" y2="13.4066" gradientUnits="userSpaceOnUse">
<stop offset="0.00132565" stop-color="#3C2200"/>
<stop offset="1" stop-color="#7A4400"/>
</linearGradient>
<radialGradient id="paint6_radial_13_188" cx="0" cy="0" r="1" gradientUnits="userSpaceOnUse" gradientTransform="translate(31.194 21.3697) rotate(73.8539) scale(2.94359 1.90446)">
<stop offset="0.00132565" stop-color="#7A4400"/>
<stop offset="1" stop-color="#643800"/>
</radialGradient>
<linearGradient id="paint7_linear_13_188" x1="31.8019" y1="18.2434" x2="31.8019" y2="21.0707" gradientUnits="userSpaceOnUse">
<stop offset="0.00132565" stop-color="#3C2200"/>
<stop offset="1" stop-color="#512D00"/>
</linearGradient>
<radialGradient id="paint8_radial_13_188" cx="0" cy="0" r="1" gradientUnits="userSpaceOnUse" gradientTransform="translate(25 35.1682) scale(11.4767 11.4767)">
<stop offset="0.00132565" stop-color="#7A4400"/>
<stop offset="1" stop-color="#643800"/>
</radialGradient>
<radialGradient id="paint9_radial_13_188" cx="0" cy="0" r="1" gradientUnits="userSpaceOnUse" gradientTransform="translate(25.172 39.2054) scale(9.51167 2.87538)">
<stop offset="0.2479" stop-color="#FF0000"/>
<stop offset="1" stop-color="#C10000"/>
</radialGradient>
<linearGradient id="paint10_linear_13_188" x1="39.6231" y1="32.809" x2="10.5544" y2="32.809" gradientUnits="userSpaceOnUse">
<stop offset="0.00132565" stop-color="#3C2200"/>
<stop offset="0.5" stop-color="#512D00"/>
<stop offset="1" stop-color="#3C2200"/>
</linearGradient>
<radialGradient id="paint11_radial_13_188" cx="0" cy="0" r="1" gradientUnits="userSpaceOnUse" gradientTransform="translate(25 31.9665) scale(25.1687 25.1687)">
<stop offset="0.00132565" stop-color="white"/>
<stop offset="1" stop-color="#A8BBBD"/>
</radialGradient>
</defs>
</svg>
