<svg width="50" height="50" viewBox="0 0 50 50" fill="none" xmlns="http://www.w3.org/2000/svg">
<path d="M24.6332 45.8334C36.1391 45.8334 45.4665 36.506 45.4665 25C45.4665 13.4941 36.1391 4.16669 24.6332 4.16669C13.1273 4.16669 3.79987 13.4941 3.79987 25C3.79987 36.506 13.1273 45.8334 24.6332 45.8334Z" fill="url(#paint0_radial_13_187)"/>
<path opacity="0.5" d="M24.6332 45.8334C36.1391 45.8334 45.4665 36.506 45.4665 25C45.4665 13.4941 36.1391 4.16669 24.6332 4.16669C13.1273 4.16669 3.79987 13.4941 3.79987 25C3.79987 36.506 13.1273 45.8334 24.6332 45.8334Z" fill="url(#paint1_radial_13_187)"/>
<path d="M38.9952 31.9272C39.0083 31.8101 39.0213 31.6929 39.0343 31.5887C39.0083 31.2111 38.7739 30.8595 38.3963 30.7293C38.201 30.6512 37.9926 30.6512 37.7843 30.7033C33.5265 31.8882 29.0994 32.5002 24.6333 32.5002C20.1671 32.5002 15.74 31.9012 11.4822 30.7033C11.2869 30.6512 11.0655 30.6512 10.8702 30.7293C10.5056 30.8726 10.2713 31.1981 10.2322 31.5757C10.2452 31.7059 10.2583 31.8361 10.2843 31.9793L10.5187 32.9559C10.5708 33.1382 10.6359 33.3335 10.714 33.5418C12.1723 36.9533 15.9744 42.9559 24.6463 42.9559C33.3051 42.9559 37.1072 36.9403 38.5786 33.5288C38.6437 33.3465 38.7088 33.1772 38.7479 33.008L38.9952 31.9272Z" fill="url(#paint2_radial_13_187)"/>
<path d="M24.633 42.0054C27.9924 42.0054 30.5705 41.0418 32.5367 39.6746C30.3752 38.672 27.771 38.021 24.633 38.021C21.495 38.021 18.8778 38.672 16.7163 39.6877C18.6955 41.0548 21.2736 42.0054 24.633 42.0054Z" fill="url(#paint3_radial_13_187)"/>
<path d="M38.7479 32.9689L38.9822 31.9663C39.0083 31.8231 39.0213 31.6929 39.0213 31.5757C38.9953 31.1981 38.7479 30.8726 38.3833 30.7293C38.188 30.6512 37.9796 30.6512 37.7713 30.7033C33.5135 31.8882 29.0864 32.5002 24.6203 32.5002C20.1541 32.5002 15.727 31.9012 11.4692 30.7033C11.2739 30.6512 11.0525 30.6512 10.8572 30.7293C10.4926 30.8726 10.2583 31.1981 10.2192 31.5757C10.2322 31.6929 10.2452 31.8361 10.2583 31.9793L10.4926 32.9689C10.5447 33.1512 10.6098 33.3465 10.688 33.5418C11.2739 34.922 12.2505 36.7189 13.7609 38.3726C12.3416 36.6799 14.0864 35.7554 17.2244 36.133C20.3494 36.5106 24.6203 36.5236 24.6203 36.5236C24.6203 36.5236 28.8911 36.5106 32.0161 36.133C35.1411 35.7554 36.8989 36.6929 35.4796 38.3726C37.0031 36.7189 37.9666 34.922 38.5525 33.5418C38.6307 33.3335 38.6958 33.1512 38.7479 32.9689Z" fill="url(#paint4_linear_13_187)"/>
<path d="M24.6332 33.4506C20.128 33.4506 15.6748 32.8516 11.3649 31.6537L11.417 32.2396C11.5212 33.3594 12.3415 34.2839 13.4352 34.5313C17.0941 35.3386 20.8441 35.7422 24.6201 35.7422C28.6957 35.7422 32.7321 35.2735 36.6644 34.336C37.2504 34.1927 37.68 33.698 37.7451 33.099L37.8884 31.6667C33.5915 32.8516 29.1384 33.4506 24.6332 33.4506Z" fill="url(#paint5_radial_13_187)"/>
<path d="M24.6332 45.8334C36.1391 45.8334 45.4665 36.506 45.4665 25C45.4665 13.4941 36.1391 4.16669 24.6332 4.16669C13.1273 4.16669 3.79987 13.4941 3.79987 25C3.79987 36.506 13.1273 45.8334 24.6332 45.8334Z" fill="url(#paint6_radial_13_187)"/>
<path d="M24.6332 45.8334C36.1391 45.8334 45.4665 36.506 45.4665 25C45.4665 13.4941 36.1391 4.16669 24.6332 4.16669C13.1273 4.16669 3.79987 13.4941 3.79987 25C3.79987 36.506 13.1273 45.8334 24.6332 45.8334Z" fill="url(#paint7_radial_13_187)"/>
<path opacity="0.24" d="M41.4821 22.5651C41.6774 22.5391 41.8597 22.526 42.042 22.513C42.042 22.526 42.029 22.5521 42.029 22.5781L41.9769 29.6094C41.9769 30.1823 41.3259 30.4948 40.8701 30.1432L35.3233 25.8333C35.2451 25.7682 35.141 25.7552 35.0498 25.7812L28.3441 27.9036C27.7972 28.0729 27.3024 27.5521 27.4977 27.0182L29.8154 20.599C29.8936 20.3906 29.8545 20.1562 29.7243 19.974L25.7529 14.4271C25.6227 14.2448 25.5967 14.0234 25.6488 13.8281L26.3128 13.8932C32.5108 13.9714 32.68 23.6458 41.4821 22.5651Z" fill="url(#paint8_radial_13_187)"/>
<path d="M37.7582 7.76037L33.5786 13.5156C33.5265 13.5937 33.4223 13.6458 33.3312 13.6328L26.2218 13.4505C25.6489 13.4375 25.3103 14.0885 25.6489 14.5442L29.7114 20.1302C29.8416 20.3125 29.8806 20.5468 29.8025 20.7682L27.4978 27.2786C27.3025 27.8255 27.8233 28.3463 28.3702 28.164L35.128 25.9635C35.2192 25.9375 35.3234 25.9505 35.4015 26.0156L41.0395 30.3385C41.4952 30.6901 42.1463 30.3645 42.1463 29.7916V22.6822C42.1463 22.5781 42.1984 22.4869 42.2765 22.4349L48.1359 18.4114C48.6046 18.0859 48.5004 17.3567 47.9536 17.1875L41.1957 14.9869C41.1046 14.9609 41.0265 14.8828 41.0004 14.7916L38.9822 7.96871C38.826 7.42183 38.0968 7.29162 37.7582 7.76037Z" fill="url(#paint9_radial_13_187)"/>
<path d="M44.1384 19.9221C45.6618 18.8414 47.7582 17.6825 47.4717 17.0315L47.9665 17.1877C48.5134 17.37 48.6176 18.0862 48.1488 18.4117L42.2894 22.4351C42.2113 22.4872 42.1592 22.5784 42.1592 22.6825C42.1853 21.4325 42.615 20.9898 44.1384 19.9221Z" fill="url(#paint10_radial_13_187)"/>
<path d="M38.9822 7.96871L41.0004 14.7786C41.0265 14.8697 41.1046 14.9479 41.1957 14.9739L47.9666 17.1744C48.5135 17.3567 48.6176 18.0729 48.1489 18.3984L42.4588 22.3177C42.2765 22.4479 42.1593 22.6562 42.1593 22.8906V29.7916C42.1593 30.3645 41.5082 30.6901 41.0525 30.3385L35.4145 26.0156C35.3364 25.9505 35.2322 25.9375 35.1411 25.9635L28.3832 28.164C27.8364 28.3463 27.3286 27.8125 27.5108 27.2786L29.8676 20.5729C29.9067 20.4817 29.8806 20.3776 29.8286 20.2994L25.6489 14.5442C25.3103 14.0755 25.6489 13.4375 26.2218 13.4505L33.3312 13.6328C33.4353 13.6328 33.5265 13.5937 33.5786 13.5156L37.7582 7.76037C38.0968 7.29162 38.826 7.42183 38.9822 7.96871Z" fill="url(#paint11_radial_13_187)"/>
<path d="M38.9822 7.96871L41.0004 14.7786C41.0265 14.8697 41.1046 14.9479 41.1957 14.9739L47.9666 17.1744C48.5135 17.3567 48.6176 18.0729 48.1489 18.3984L42.4588 22.3177C42.2765 22.4479 42.1593 22.6562 42.1593 22.8906V29.7916C42.1593 30.3645 41.5082 30.6901 41.0525 30.3385L35.4145 26.0156C35.3364 25.9505 35.2322 25.9375 35.1411 25.9635L28.3832 28.164C27.8364 28.3463 27.3286 27.8125 27.5108 27.2786L29.8676 20.5729C29.9067 20.4817 29.8806 20.3776 29.8286 20.2994L25.6489 14.5442C25.3103 14.0755 25.6489 13.4375 26.2218 13.4505L33.3312 13.6328C33.4353 13.6328 33.5265 13.5937 33.5786 13.5156L37.7582 7.76037C38.0968 7.29162 38.826 7.42183 38.9822 7.96871Z" fill="url(#paint12_radial_13_187)"/>
<path opacity="0.24" d="M38.9822 7.96871L41.0004 14.7786C41.0265 14.8697 41.1046 14.9479 41.1957 14.9739L47.9666 17.1744C48.5135 17.3567 48.6176 18.0729 48.1489 18.3984L42.4588 22.3177C42.2765 22.4479 42.1593 22.6562 42.1593 22.8906V29.7916C42.1593 30.3645 41.5082 30.6901 41.0525 30.3385L35.4145 26.0156C35.3364 25.9505 35.2322 25.9375 35.1411 25.9635L28.3832 28.164C27.8364 28.3463 27.3286 27.8125 27.5108 27.2786L29.8676 20.5729C29.9067 20.4817 29.8806 20.3776 29.8286 20.2994L25.6489 14.5442C25.3103 14.0755 25.6489 13.4375 26.2218 13.4505L33.3312 13.6328C33.4353 13.6328 33.5265 13.5937 33.5786 13.5156L37.7582 7.76037C38.0968 7.29162 38.826 7.42183 38.9822 7.96871Z" fill="url(#paint13_radial_13_187)"/>
<path opacity="0.24" d="M38.9822 7.96871L41.0004 14.7786C41.0265 14.8697 41.1046 14.9479 41.1957 14.9739L47.9666 17.1744C48.5135 17.3567 48.6176 18.0729 48.1489 18.3984L42.4588 22.3177C42.2765 22.4479 42.1593 22.6562 42.1593 22.8906V29.7916C42.1593 30.3645 41.5082 30.6901 41.0525 30.3385L35.4145 26.0156C35.3364 25.9505 35.2322 25.9375 35.1411 25.9635L28.3832 28.164C27.8364 28.3463 27.3286 27.8125 27.5108 27.2786L29.8676 20.5729C29.9067 20.4817 29.8806 20.3776 29.8286 20.2994L25.6489 14.5442C25.3103 14.0755 25.6489 13.4375 26.2218 13.4505L33.3312 13.6328C33.4353 13.6328 33.5265 13.5937 33.5786 13.5156L37.7582 7.76037C38.0968 7.29162 38.826 7.42183 38.9822 7.96871Z" fill="url(#paint14_radial_13_187)"/>
<path d="M47.9665 17.1742L41.1957 14.9867C41.1045 14.9607 41.0264 14.8826 41.0004 14.7914L38.9821 7.96851C38.9821 7.96851 38.6436 8.26798 39.0472 9.7133C39.3207 10.6508 39.9977 13.2419 40.3884 14.5831C40.6097 15.3383 41.1175 15.4425 41.8728 15.6768L46.8728 17.2133C46.8728 17.2133 47.4327 17.3565 47.9665 17.1742Z" fill="url(#paint15_radial_13_187)"/>
<path d="M27.4978 27.2786C27.3025 27.8255 27.8233 28.3463 28.3702 28.164L35.128 25.9635C35.2192 25.9375 35.3234 25.9505 35.4015 26.0156L41.0395 30.3385C41.4952 30.6901 42.1463 30.3645 42.1463 29.7916V22.6822C42.1463 22.5781 42.1984 22.4869 42.2765 22.4349L48.1359 18.4114C48.6046 18.0859 48.5004 17.3567 47.9536 17.1875L41.1957 14.9869C41.1046 14.9609 41.0265 14.8828 41.0004 14.7916L38.9822 7.96871C38.8129 7.42183 38.0968 7.29162 37.7582 7.76037L33.5786 13.5156C33.5265 13.5937 33.4223 13.6458 33.3312 13.6328L26.2218 13.4505C25.6489 13.4375 25.3103 14.0885 25.6489 14.5442L29.7114 20.1302C29.8416 20.3125 29.8806 20.5468 29.8025 20.7682L27.4978 27.2786ZM27.8624 27.4088L30.1671 20.8984C30.2843 20.5599 30.2322 20.1953 30.0239 19.8958L25.9614 14.3229C25.8572 14.1927 25.9093 14.0494 25.9353 14.0104C25.9614 13.9583 26.0395 13.8541 26.1957 13.8541C26.1957 13.8541 26.1957 13.8541 26.2088 13.8541L33.3181 14.0364C33.5395 14.0494 33.7608 13.9322 33.8911 13.75L38.0707 7.99475C38.1489 7.89058 38.24 7.86454 38.3051 7.86454C38.3312 7.86454 38.3442 7.86454 38.3572 7.86454C38.4093 7.87756 38.5525 7.91662 38.5916 8.07287L40.6098 14.8828C40.6749 15.1041 40.8442 15.2734 41.0525 15.3385L47.8103 17.539C47.9666 17.5911 48.0056 17.7213 48.0187 17.7864C48.0317 17.8385 48.0317 17.9817 47.8885 18.0729L42.0291 22.0963C41.8468 22.2265 41.7296 22.4349 41.7296 22.6692V29.7786C41.7296 29.9479 41.6124 30.026 41.5603 30.052C41.5082 30.0781 41.378 30.1302 41.2478 30.026L35.6098 25.7031C35.4275 25.5599 35.1931 25.5208 34.9718 25.5989L28.214 27.7994C28.0577 27.8515 27.9405 27.7604 27.9015 27.7213C27.9015 27.6822 27.8103 27.5651 27.8624 27.4088Z" fill="url(#paint16_radial_13_187)"/>
<path opacity="0.24" d="M7.78408 22.5651C7.58877 22.5391 7.40647 22.5261 7.22418 22.513C7.22418 22.5261 7.2372 22.5521 7.2372 22.5781L7.28929 29.6094C7.28929 30.1823 7.94033 30.4948 8.39606 30.1433L13.9429 25.8334C14.0211 25.7683 14.1252 25.7552 14.2164 25.7813L20.9221 27.9037C21.469 28.0729 21.9638 27.5521 21.7685 27.0183L19.4507 20.586C19.3726 20.3776 19.4117 20.1433 19.5419 19.961L23.5132 14.4141C23.6435 14.2318 23.6695 14.0104 23.6174 13.8151L22.9533 13.8802C16.7554 13.9714 16.5862 23.6459 7.78408 22.5651Z" fill="url(#paint17_radial_13_187)"/>
<path d="M11.5082 7.76041L15.6879 13.5156C15.74 13.5937 15.8441 13.6458 15.9353 13.6328L23.0447 13.4505C23.6176 13.4375 23.9561 14.0885 23.6176 14.5443L19.5551 20.1302C19.4249 20.3125 19.3858 20.5469 19.4639 20.7682L21.7686 27.2786C21.9639 27.8255 21.4431 28.3463 20.8962 28.1641L14.1384 25.9635C14.0473 25.9375 13.9431 25.9505 13.865 26.0156L8.22694 30.3385C7.77121 30.6901 7.12017 30.3646 7.12017 29.7917V22.6823C7.12017 22.5781 7.06809 22.487 6.98996 22.4349L1.13059 18.4114C0.661837 18.0859 0.766003 17.3568 1.31288 17.1875L8.07069 14.987C8.16184 14.9609 8.23996 14.8828 8.266 14.7917L10.2842 7.98176C10.4535 7.42187 11.1697 7.29166 11.5082 7.76041Z" fill="url(#paint18_radial_13_187)"/>
<path d="M5.14101 19.9221C3.61757 18.8414 1.52121 17.6825 1.80767 17.0315L1.31288 17.1877C0.766003 17.37 0.661837 18.0862 1.13059 18.4117L6.98996 22.4351C7.06809 22.4872 7.12017 22.5784 7.12017 22.6825C7.09413 21.4325 6.65142 20.9898 5.14101 19.9221Z" fill="url(#paint19_radial_13_187)"/>
<path d="M20.3493 17.305C21.43 15.7815 23.0056 13.9847 22.5238 13.4638L23.0446 13.4508C23.6175 13.4378 23.9561 14.0888 23.6175 14.5446L19.4509 20.2998C19.3988 20.3779 19.3728 20.4821 19.4118 20.5732C19.0082 19.3883 19.2686 18.8284 20.3493 17.305Z" fill="url(#paint20_radial_13_187)"/>
<path d="M23.0447 13.4504L15.9353 13.6327C15.8311 13.6327 15.74 13.5936 15.6879 13.5155L11.5082 7.76025C11.5082 7.76025 11.2869 8.1639 12.1593 9.37484C12.7191 10.1691 14.2296 12.3827 15.0499 13.5155C15.5056 14.1665 16.0134 14.0884 16.8077 14.0493L22.0421 13.828C22.029 13.841 22.615 13.7889 23.0447 13.4504Z" fill="url(#paint21_radial_13_187)"/>
<path d="M10.2842 7.96871L8.266 14.7786C8.23996 14.8697 8.16184 14.9479 8.07069 14.9739L1.31288 17.1744C0.766003 17.3567 0.661837 18.0729 1.13059 18.3984L6.82069 22.3177C7.00298 22.4479 7.12017 22.6562 7.12017 22.8906V29.7916C7.12017 30.3645 7.77121 30.6901 8.22694 30.3385L13.865 26.0156C13.9431 25.9505 14.0473 25.9375 14.1384 25.9635L20.8962 28.164C21.4431 28.3463 21.9509 27.8125 21.7686 27.2786L19.3988 20.5729C19.3598 20.4817 19.3858 20.3776 19.4379 20.2994L23.6176 14.5442C23.9561 14.0755 23.6176 13.4375 23.0447 13.4505L15.9353 13.6328C15.8311 13.6328 15.74 13.5937 15.6879 13.5156L11.5082 7.76037C11.1697 7.29162 10.4535 7.42183 10.2842 7.96871Z" fill="url(#paint22_radial_13_187)"/>
<path d="M10.2842 7.96871L8.266 14.7786C8.23996 14.8697 8.16184 14.9479 8.07069 14.9739L1.31288 17.1744C0.766003 17.3567 0.661837 18.0729 1.13059 18.3984L6.82069 22.3177C7.00298 22.4479 7.12017 22.6562 7.12017 22.8906V29.7916C7.12017 30.3645 7.77121 30.6901 8.22694 30.3385L13.865 26.0156C13.9431 25.9505 14.0473 25.9375 14.1384 25.9635L20.8962 28.164C21.4431 28.3463 21.9509 27.8125 21.7686 27.2786L19.3988 20.5729C19.3598 20.4817 19.3858 20.3776 19.4379 20.2994L23.6176 14.5442C23.9561 14.0755 23.6176 13.4375 23.0447 13.4505L15.9353 13.6328C15.8311 13.6328 15.74 13.5937 15.6879 13.5156L11.5082 7.76037C11.1697 7.29162 10.4535 7.42183 10.2842 7.96871Z" fill="url(#paint23_radial_13_187)"/>
<path opacity="0.24" d="M10.2842 7.96871L8.266 14.7786C8.23996 14.8697 8.16184 14.9479 8.07069 14.9739L1.31288 17.1744C0.766003 17.3567 0.661837 18.0729 1.13059 18.3984L6.82069 22.3177C7.00298 22.4479 7.12017 22.6562 7.12017 22.8906V29.7916C7.12017 30.3645 7.77121 30.6901 8.22694 30.3385L13.865 26.0156C13.9431 25.9505 14.0473 25.9375 14.1384 25.9635L20.8962 28.164C21.4431 28.3463 21.9509 27.8125 21.7686 27.2786L19.3988 20.5729C19.3598 20.4817 19.3858 20.3776 19.4379 20.2994L23.6176 14.5442C23.9561 14.0755 23.6176 13.4375 23.0447 13.4505L15.9353 13.6328C15.8311 13.6328 15.74 13.5937 15.6879 13.5156L11.5082 7.76037C11.1697 7.29162 10.4535 7.42183 10.2842 7.96871Z" fill="url(#paint24_radial_13_187)"/>
<path opacity="0.24" d="M10.2842 7.96871L8.266 14.7786C8.23996 14.8697 8.16184 14.9479 8.07069 14.9739L1.31288 17.1744C0.766003 17.3567 0.661837 18.0729 1.13059 18.3984L6.82069 22.3177C7.00298 22.4479 7.12017 22.6562 7.12017 22.8906V29.7916C7.12017 30.3645 7.77121 30.6901 8.22694 30.3385L13.865 26.0156C13.9431 25.9505 14.0473 25.9375 14.1384 25.9635L20.8962 28.164C21.4431 28.3463 21.9509 27.8125 21.7686 27.2786L19.3988 20.5729C19.3598 20.4817 19.3858 20.3776 19.4379 20.2994L23.6176 14.5442C23.9561 14.0755 23.6176 13.4375 23.0447 13.4505L15.9353 13.6328C15.8311 13.6328 15.74 13.5937 15.6879 13.5156L11.5082 7.76037C11.1697 7.29162 10.4535 7.42183 10.2842 7.96871Z" fill="url(#paint25_radial_13_187)"/>
<path d="M1.31299 17.1742L8.0708 14.9737C8.16195 14.9477 8.24007 14.8696 8.26611 14.7784L10.2843 7.96851C10.2843 7.96851 10.6229 8.26798 10.2192 9.7133C9.9458 10.6508 9.26872 13.2419 8.87809 14.5831C8.65674 15.3383 8.14893 15.4425 7.39372 15.6768L2.39372 17.2133C2.39372 17.2133 1.83382 17.3565 1.31299 17.1742Z" fill="url(#paint26_radial_13_187)"/>
<path d="M28.9299 17.305C27.8492 15.7815 26.2737 13.9847 26.7555 13.4638L26.2346 13.4508C25.6617 13.4378 25.3232 14.0888 25.6617 14.5446L29.8414 20.2998C29.8935 20.3779 29.9195 20.4821 29.8805 20.5732C30.2581 19.3883 29.9977 18.8284 28.9299 17.305Z" fill="url(#paint27_radial_13_187)"/>
<path d="M15.2974 14.8439C16.1438 16.2762 14.7375 18.659 12.1724 20.1564C9.6073 21.6538 6.84688 21.7189 6.01355 20.2866C5.18022 18.8543 6.57345 16.4715 9.13855 14.9741C11.7037 13.4767 14.451 13.4246 15.2974 14.8439Z" fill="url(#paint28_radial_13_187)"/>
<path d="M39.8676 14.1405C40.7139 15.5728 39.3077 17.9556 36.7426 19.453C34.1775 20.9504 31.417 21.0155 30.5837 19.5832C29.7504 18.1509 31.1436 15.7681 33.7087 14.2707C36.2738 12.7733 39.0212 12.7082 39.8676 14.1405Z" fill="url(#paint29_radial_13_187)"/>
<path d="M19.4769 20.7682C19.3988 20.5599 19.4379 20.3125 19.5681 20.1302L23.6176 14.5442C23.9561 14.0755 23.6176 13.4375 23.0447 13.4505L15.9353 13.6328C15.8311 13.6328 15.74 13.5937 15.6879 13.5156L11.5082 7.76037C11.1697 7.29162 10.4535 7.42183 10.2842 7.96871L8.266 14.7786C8.23996 14.8698 8.16184 14.9479 8.07069 14.9739L1.31288 17.1744C0.766003 17.3567 0.661837 18.0729 1.13059 18.3984L6.98996 22.4218C7.06809 22.4739 7.12017 22.5651 7.12017 22.6692V29.7786C7.12017 30.3515 7.77121 30.677 8.22694 30.3255L13.865 26.0026C13.9431 25.9375 14.0473 25.9244 14.1384 25.9505L20.8962 28.151C21.4431 28.3333 21.9509 27.7994 21.7686 27.2656L19.4769 20.7682ZM21.3389 27.7213C21.2999 27.7604 21.1957 27.8515 21.0264 27.7994L14.2686 25.5989C14.0473 25.5338 13.8129 25.5729 13.6306 25.7031L7.99257 30.039C7.86236 30.1432 7.73215 30.0911 7.68007 30.0651C7.62798 30.039 7.5108 29.9609 7.5108 29.7916V22.6822C7.5108 22.4609 7.39361 22.2395 7.21132 22.1093L1.35194 18.0859C1.20871 17.9947 1.22173 17.8515 1.22173 17.7994C1.23475 17.7474 1.2608 17.6041 1.43007 17.552L8.18788 15.3515C8.40923 15.2864 8.56548 15.1041 8.63059 14.8958L10.6488 8.0859C10.7009 7.92965 10.8311 7.89058 10.8832 7.87756C10.8962 7.87756 10.9092 7.87756 10.9353 7.87756C11.0004 7.87756 11.1045 7.9036 11.1697 8.00777L15.3493 13.763C15.4795 13.9453 15.7009 14.0494 15.9223 14.0494L23.0316 13.8671C23.0316 13.8671 23.0316 13.8671 23.0447 13.8671C23.2009 13.8671 23.279 13.9843 23.3051 14.0234C23.3311 14.0755 23.3832 14.2057 23.279 14.3359L19.2165 19.9218C19.0082 20.2083 18.9561 20.5859 19.0733 20.9244L21.378 27.4349C21.4561 27.5651 21.378 27.6822 21.3389 27.7213Z" fill="url(#paint30_radial_13_187)"/>
<defs>
<radialGradient id="paint0_radial_13_187" cx="0" cy="0" r="1" gradientUnits="userSpaceOnUse" gradientTransform="translate(20.5368 16.557) scale(25.1327 25.1327)">
<stop stop-color="#FFE030"/>
<stop offset="1" stop-color="#FFB92E"/>
</radialGradient>
<radialGradient id="paint1_radial_13_187" cx="0" cy="0" r="1" gradientUnits="userSpaceOnUse" gradientTransform="translate(20.5368 16.557) scale(19.773 19.773)">
<stop stop-color="#FFEA5F"/>
<stop offset="1" stop-color="#FFBC47" stop-opacity="0"/>
</radialGradient>
<radialGradient id="paint2_radial_13_187" cx="0" cy="0" r="1" gradientUnits="userSpaceOnUse" gradientTransform="translate(24.6339 36.8142) scale(11.0697 11.0696)">
<stop offset="0.00132565" stop-color="#7A4400"/>
<stop offset="1" stop-color="#643800"/>
</radialGradient>
<radialGradient id="paint3_radial_13_187" cx="0" cy="0" r="1" gradientUnits="userSpaceOnUse" gradientTransform="translate(24.7942 40.4942) scale(8.80736 2.66299)">
<stop offset="0.2479" stop-color="#FF0000"/>
<stop offset="1" stop-color="#C20000"/>
</radialGradient>
<linearGradient id="paint4_linear_13_187" x1="38.8737" y1="34.5242" x2="10.5711" y2="34.5242" gradientUnits="userSpaceOnUse">
<stop offset="0.00132565" stop-color="#3C2200"/>
<stop offset="0.5" stop-color="#512D00"/>
<stop offset="1" stop-color="#3C2200"/>
</linearGradient>
<radialGradient id="paint5_radial_13_187" cx="0" cy="0" r="1" gradientUnits="userSpaceOnUse" gradientTransform="translate(24.6347 33.6971) scale(24.279 24.279)">
<stop offset="0.00132565" stop-color="white"/>
<stop offset="1" stop-color="#A9BCBE"/>
</radialGradient>
<radialGradient id="paint6_radial_13_187" cx="0" cy="0" r="1" gradientUnits="userSpaceOnUse" gradientTransform="translate(43.7944 24.2766) rotate(34.2288) scale(11.8227 11.8951)">
<stop stop-color="#FF8000" stop-opacity="0.5"/>
<stop offset="0.995" stop-color="#FF8000" stop-opacity="0"/>
</radialGradient>
<radialGradient id="paint7_radial_13_187" cx="0" cy="0" r="1" gradientUnits="userSpaceOnUse" gradientTransform="translate(5.47911 24.2805) rotate(145.771) scale(11.8227 11.8951)">
<stop stop-color="#FF8000" stop-opacity="0.5"/>
<stop offset="0.995" stop-color="#FF8000" stop-opacity="0"/>
</radialGradient>
<radialGradient id="paint8_radial_13_187" cx="0" cy="0" r="1" gradientUnits="userSpaceOnUse" gradientTransform="translate(34.5454 21.3666) rotate(180) scale(17.5252 17.5251)">
<stop stop-color="white"/>
<stop offset="1" stop-color="white" stop-opacity="0"/>
</radialGradient>
<radialGradient id="paint9_radial_13_187" cx="0" cy="0" r="1" gradientUnits="userSpaceOnUse" gradientTransform="translate(37.5196 16.2181) rotate(-170.266) scale(11.3559 11.3559)">
<stop stop-color="#FFEA5F"/>
<stop offset="0.4904" stop-color="#FFE95D"/>
<stop offset="0.667" stop-color="#FFE756"/>
<stop offset="0.793" stop-color="#FFE34B"/>
<stop offset="0.8947" stop-color="#FEDD3A"/>
<stop offset="0.9809" stop-color="#FED524"/>
<stop offset="1" stop-color="#FED31E"/>
</radialGradient>
<radialGradient id="paint10_radial_13_187" cx="0" cy="0" r="1" gradientUnits="userSpaceOnUse" gradientTransform="translate(45.0237 22.0564) rotate(-130.782) scale(2.10024 5.65509)">
<stop stop-color="#D86D00"/>
<stop offset="0.3292" stop-color="#DC6C0A" stop-opacity="0.6708"/>
<stop offset="0.8792" stop-color="#E86823" stop-opacity="0.1208"/>
<stop offset="1" stop-color="#EB672A" stop-opacity="0"/>
</radialGradient>
<radialGradient id="paint11_radial_13_187" cx="0" cy="0" r="1" gradientUnits="userSpaceOnUse" gradientTransform="translate(31.9236 29.0319) rotate(-16.5811) scale(6.24378 2.95879)">
<stop stop-color="#D86D00"/>
<stop offset="0.3292" stop-color="#DC6C0A" stop-opacity="0.6708"/>
<stop offset="0.8792" stop-color="#E86823" stop-opacity="0.1208"/>
<stop offset="1" stop-color="#EB672A" stop-opacity="0"/>
</radialGradient>
<radialGradient id="paint12_radial_13_187" cx="0" cy="0" r="1" gradientUnits="userSpaceOnUse" gradientTransform="translate(34.042 32.8005) rotate(12.5087) scale(8.25475 8.46266)">
<stop stop-color="#D86D00"/>
<stop offset="0.3292" stop-color="#DC6C0A" stop-opacity="0.6708"/>
<stop offset="0.8792" stop-color="#E86823" stop-opacity="0.1208"/>
<stop offset="1" stop-color="#EB672A" stop-opacity="0"/>
</radialGradient>
<radialGradient id="paint13_radial_13_187" cx="0" cy="0" r="1" gradientUnits="userSpaceOnUse" gradientTransform="translate(32.9193 23.283) rotate(31.2857) scale(8.72818 6.59718)">
<stop stop-color="#FFA754"/>
<stop offset="0.3697" stop-color="#FFB152" stop-opacity="0.6303"/>
<stop offset="0.9874" stop-color="#FFCA4B" stop-opacity="0.0126062"/>
<stop offset="1" stop-color="#FFCB4B" stop-opacity="0"/>
</radialGradient>
<radialGradient id="paint14_radial_13_187" cx="0" cy="0" r="1" gradientUnits="userSpaceOnUse" gradientTransform="translate(37.9159 15.9962) rotate(31.2857) scale(5.25881 3.97486)">
<stop stop-color="white"/>
<stop offset="1" stop-color="white" stop-opacity="0"/>
</radialGradient>
<radialGradient id="paint15_radial_13_187" cx="0" cy="0" r="1" gradientUnits="userSpaceOnUse" gradientTransform="translate(45.1441 10.9929) rotate(56.5612) scale(8.22519 5.6606)">
<stop stop-color="#ED9900"/>
<stop offset="1" stop-color="#ED9900" stop-opacity="0"/>
</radialGradient>
<radialGradient id="paint16_radial_13_187" cx="0" cy="0" r="1" gradientUnits="userSpaceOnUse" gradientTransform="translate(36.4772 18.8434) rotate(180) scale(9.73193 9.73193)">
<stop stop-color="#A3541E" stop-opacity="0.5"/>
<stop offset="0.5109" stop-color="#A5551D" stop-opacity="0.7555"/>
<stop offset="0.695" stop-color="#AC5819" stop-opacity="0.8475"/>
<stop offset="0.8261" stop-color="#B75E12" stop-opacity="0.9131"/>
<stop offset="0.9315" stop-color="#C86609" stop-opacity="0.9657"/>
<stop offset="1" stop-color="#D86D00"/>
</radialGradient>
<radialGradient id="paint17_radial_13_187" cx="0" cy="0" r="1" gradientUnits="userSpaceOnUse" gradientTransform="translate(14.7259 21.3666) scale(17.5252 17.5252)">
<stop stop-color="white"/>
<stop offset="1" stop-color="white" stop-opacity="0"/>
</radialGradient>
<radialGradient id="paint18_radial_13_187" cx="0" cy="0" r="1" gradientUnits="userSpaceOnUse" gradientTransform="translate(11.7534 16.2184) rotate(-9.73431) scale(11.3559)">
<stop stop-color="#FFEA5F"/>
<stop offset="0.4904" stop-color="#FFE95D"/>
<stop offset="0.667" stop-color="#FFE756"/>
<stop offset="0.793" stop-color="#FFE34B"/>
<stop offset="0.8947" stop-color="#FEDD3A"/>
<stop offset="0.9809" stop-color="#FED524"/>
<stop offset="1" stop-color="#FED31E"/>
</radialGradient>
<radialGradient id="paint19_radial_13_187" cx="0" cy="0" r="1" gradientUnits="userSpaceOnUse" gradientTransform="translate(4.24902 22.0556) rotate(-49.2176) scale(2.10024 5.65509)">
<stop stop-color="#D86D00"/>
<stop offset="0.3292" stop-color="#DC6C0A" stop-opacity="0.6708"/>
<stop offset="0.8792" stop-color="#E86823" stop-opacity="0.1208"/>
<stop offset="1" stop-color="#EB672A" stop-opacity="0"/>
</radialGradient>
<radialGradient id="paint20_radial_13_187" cx="0" cy="0" r="1" gradientUnits="userSpaceOnUse" gradientTransform="translate(21.7265 19.3929) rotate(-150.251) scale(2.10034 5.65503)">
<stop stop-color="#D86D00"/>
<stop offset="0.3292" stop-color="#DC6C0A" stop-opacity="0.6708"/>
<stop offset="0.8792" stop-color="#E86823" stop-opacity="0.1208"/>
<stop offset="1" stop-color="#EB672A" stop-opacity="0"/>
</radialGradient>
<radialGradient id="paint21_radial_13_187" cx="0" cy="0" r="1" gradientUnits="userSpaceOnUse" gradientTransform="translate(18.3265 8.56605) rotate(37.0947) scale(8.22398 5.66053)">
<stop stop-color="#ED9900"/>
<stop offset="1" stop-color="#ED9900" stop-opacity="0"/>
</radialGradient>
<radialGradient id="paint22_radial_13_187" cx="0" cy="0" r="1" gradientUnits="userSpaceOnUse" gradientTransform="translate(17.3483 29.0285) rotate(-163.419) scale(6.24378 2.95879)">
<stop stop-color="#D86D00"/>
<stop offset="0.3292" stop-color="#DC6C0A" stop-opacity="0.6708"/>
<stop offset="0.8792" stop-color="#E86823" stop-opacity="0.1208"/>
<stop offset="1" stop-color="#EB672A" stop-opacity="0"/>
</radialGradient>
<radialGradient id="paint23_radial_13_187" cx="0" cy="0" r="1" gradientUnits="userSpaceOnUse" gradientTransform="translate(15.2315 32.8004) rotate(167.491) scale(8.25475 8.46266)">
<stop stop-color="#D86D00"/>
<stop offset="0.3292" stop-color="#DC6C0A" stop-opacity="0.6708"/>
<stop offset="0.8792" stop-color="#E86823" stop-opacity="0.1208"/>
<stop offset="1" stop-color="#EB672A" stop-opacity="0"/>
</radialGradient>
<radialGradient id="paint24_radial_13_187" cx="0" cy="0" r="1" gradientUnits="userSpaceOnUse" gradientTransform="translate(16.3547 23.2862) rotate(148.714) scale(8.72818 6.59718)">
<stop stop-color="#FFA754"/>
<stop offset="0.3697" stop-color="#FFB152" stop-opacity="0.6303"/>
<stop offset="0.9874" stop-color="#FFCA4B" stop-opacity="0.0126062"/>
<stop offset="1" stop-color="#FFCB4B" stop-opacity="0"/>
</radialGradient>
<radialGradient id="paint25_radial_13_187" cx="0" cy="0" r="1" gradientUnits="userSpaceOnUse" gradientTransform="translate(11.3582 15.9994) rotate(148.714) scale(5.25881 3.97486)">
<stop stop-color="white"/>
<stop offset="1" stop-color="white" stop-opacity="0"/>
</radialGradient>
<radialGradient id="paint26_radial_13_187" cx="0" cy="0" r="1" gradientUnits="userSpaceOnUse" gradientTransform="translate(4.13023 10.9899) rotate(123.439) scale(8.22518 5.6606)">
<stop stop-color="#ED9900"/>
<stop offset="1" stop-color="#ED9900" stop-opacity="0"/>
</radialGradient>
<radialGradient id="paint27_radial_13_187" cx="0" cy="0" r="1" gradientUnits="userSpaceOnUse" gradientTransform="translate(27.5476 19.3915) rotate(-29.7489) scale(2.10034 5.65503)">
<stop stop-color="#D86D00"/>
<stop offset="0.3292" stop-color="#DC6C0A" stop-opacity="0.6708"/>
<stop offset="0.8792" stop-color="#E86823" stop-opacity="0.1208"/>
<stop offset="1" stop-color="#EB672A" stop-opacity="0"/>
</radialGradient>
<radialGradient id="paint28_radial_13_187" cx="0" cy="0" r="1" gradientUnits="userSpaceOnUse" gradientTransform="translate(10.6555 17.5376) rotate(-31.91) scale(5.41975 2.91703)">
<stop stop-color="white" stop-opacity="0.5"/>
<stop offset="0.995" stop-color="white" stop-opacity="0"/>
</radialGradient>
<radialGradient id="paint29_radial_13_187" cx="0" cy="0" r="1" gradientUnits="userSpaceOnUse" gradientTransform="translate(35.2214 16.822) rotate(-31.91) scale(5.41976 2.91704)">
<stop stop-color="white" stop-opacity="0.5"/>
<stop offset="0.995" stop-color="white" stop-opacity="0"/>
</radialGradient>
<radialGradient id="paint30_radial_13_187" cx="0" cy="0" r="1" gradientUnits="userSpaceOnUse" gradientTransform="translate(12.7943 18.8434) scale(9.73193 9.73193)">
<stop stop-color="#A3541E" stop-opacity="0.5"/>
<stop offset="0.5109" stop-color="#A5551D" stop-opacity="0.7555"/>
<stop offset="0.695" stop-color="#AC5819" stop-opacity="0.8475"/>
<stop offset="0.8261" stop-color="#B75E12" stop-opacity="0.9131"/>
<stop offset="0.9315" stop-color="#C86609" stop-opacity="0.9657"/>
<stop offset="1" stop-color="#D86D00"/>
</radialGradient>
</defs>
</svg>
