<svg width="50" height="50" viewBox="0 0 50 50" fill="none" xmlns="http://www.w3.org/2000/svg">
<path d="M25.8333 45.8333C37.3393 45.8333 46.6667 36.5059 46.6667 25C46.6667 13.494 37.3393 4.16663 25.8333 4.16663C14.3274 4.16663 5 13.494 5 25C5 36.5059 14.3274 45.8333 25.8333 45.8333Z" fill="url(#paint0_radial_13_240)"/>
<path opacity="0.5" d="M25.8333 45.8333C37.3393 45.8333 46.6667 36.5059 46.6667 25C46.6667 13.494 37.3393 4.16663 25.8333 4.16663C14.3274 4.16663 5 13.494 5 25C5 36.5059 14.3274 45.8333 25.8333 45.8333Z" fill="url(#paint1_radial_13_240)"/>
<path d="M21.3281 15.0911C21.276 14.0885 20.3385 13.5156 18.789 13.5937C17.4739 13.6719 14.6223 14.7005 12.7994 17.8776C12.4609 18.4635 13.0468 18.75 13.3854 18.3594C14.5442 17.0443 17.7343 15.2604 20.3124 15.4557C21.3541 15.5339 21.3281 15.0911 21.3281 15.0911Z" fill="url(#paint2_linear_13_240)"/>
<path d="M19.0365 25.8986C20.144 25.8986 21.0417 24.5403 21.0417 22.8648C21.0417 21.1892 20.144 19.8309 19.0365 19.8309C17.9291 19.8309 17.0313 21.1892 17.0313 22.8648C17.0313 24.5403 17.9291 25.8986 19.0365 25.8986Z" fill="url(#paint3_radial_13_240)"/>
<path d="M19.0365 20.8595C19.8959 20.8595 20.6511 21.6147 21.0417 22.7215C21.0157 21.0809 20.1303 19.7657 19.0365 19.7657C17.9428 19.7657 17.0574 21.0809 17.0313 22.7215C17.4219 21.6017 18.1641 20.8595 19.0365 20.8595Z" fill="url(#paint4_linear_13_240)"/>
<path d="M32.6303 25.8986C33.7377 25.8986 34.6355 24.5403 34.6355 22.8648C34.6355 21.1892 33.7377 19.8309 32.6303 19.8309C31.5228 19.8309 30.6251 21.1892 30.6251 22.8648C30.6251 24.5403 31.5228 25.8986 32.6303 25.8986Z" fill="url(#paint5_radial_13_240)"/>
<path d="M30.3384 15.1563C30.3905 14.1537 31.328 13.5808 32.8775 13.6589C34.1926 13.7371 37.0442 14.7657 38.8671 17.9428C39.2056 18.5287 38.6197 18.8152 38.2811 18.4246C37.1223 17.1095 33.9322 15.3256 31.3541 15.5209C30.3124 15.6121 30.3384 15.1563 30.3384 15.1563Z" fill="url(#paint6_linear_13_240)"/>
<path d="M32.6303 20.9247C31.7709 20.9247 31.0157 21.6799 30.6251 22.7867C30.6511 21.146 31.5365 19.8309 32.6303 19.8309C33.724 19.8309 34.6095 21.146 34.6355 22.7867C34.2449 21.6799 33.5027 20.9247 32.6303 20.9247Z" fill="url(#paint7_linear_13_240)"/>
<path d="M35.0259 36.9789C35.4295 36.6534 35.5077 36.0544 35.1952 35.6378C33.3592 33.1638 30.4295 30.9373 25.8332 30.9373C21.2368 30.9373 18.3071 33.1638 16.4712 35.6378C16.1587 36.0544 16.2368 36.6534 16.6405 36.9789C17.0701 37.3305 17.7212 37.2524 18.0467 36.7966C19.6222 34.7133 22.0311 32.9685 25.8202 32.9685C29.6092 32.9685 32.0311 34.7133 33.5936 36.7966C33.9451 37.2524 34.5832 37.3305 35.0259 36.9789Z" fill="url(#paint8_radial_13_240)"/>
<path d="M35.3776 36.3279C35.4036 36.0935 35.3516 35.8461 35.1953 35.6378C33.3594 33.1638 30.4297 30.9373 25.8333 30.9373C21.237 30.9373 18.3073 33.1638 16.4713 35.6378C16.3151 35.8461 16.263 36.0935 16.289 36.3279C18.2812 33.906 21.3021 31.8617 25.8333 31.8617C30.3646 31.8617 33.3984 33.906 35.3776 36.3279Z" fill="url(#paint9_linear_13_240)"/>
<defs>
<radialGradient id="paint0_radial_13_240" cx="0" cy="0" r="1" gradientUnits="userSpaceOnUse" gradientTransform="translate(21.7343 16.5612) scale(25.1327)">
<stop stop-color="#FFE030"/>
<stop offset="1" stop-color="#FFB92E"/>
</radialGradient>
<radialGradient id="paint1_radial_13_240" cx="0" cy="0" r="1" gradientUnits="userSpaceOnUse" gradientTransform="translate(21.7343 16.5612) scale(19.773)">
<stop stop-color="#FFEA5F"/>
<stop offset="1" stop-color="#FFBC47" stop-opacity="0"/>
</radialGradient>
<linearGradient id="paint2_linear_13_240" x1="17.0355" y1="16.9949" x2="16.8907" y2="14.3652" gradientUnits="userSpaceOnUse">
<stop offset="0.00132565" stop-color="#3C2200"/>
<stop offset="1" stop-color="#7A4400"/>
</linearGradient>
<radialGradient id="paint3_radial_13_240" cx="0" cy="0" r="1" gradientUnits="userSpaceOnUse" gradientTransform="translate(18.4249 22.9403) rotate(73.8539) scale(2.9436 1.90446)">
<stop offset="0.00132565" stop-color="#7A4400"/>
<stop offset="1" stop-color="#643800"/>
</radialGradient>
<linearGradient id="paint4_linear_13_240" x1="19.0316" y1="19.8104" x2="19.0316" y2="22.6377" gradientUnits="userSpaceOnUse">
<stop offset="0.00132565" stop-color="#3C2200"/>
<stop offset="1" stop-color="#512D00"/>
</linearGradient>
<radialGradient id="paint5_radial_13_240" cx="0" cy="0" r="1" gradientUnits="userSpaceOnUse" gradientTransform="translate(32.0292 22.9408) rotate(73.854) scale(2.9436 1.90446)">
<stop offset="0.00132565" stop-color="#7A4400"/>
<stop offset="1" stop-color="#643800"/>
</radialGradient>
<linearGradient id="paint6_linear_13_240" x1="34.6434" y1="17.07" x2="34.7883" y2="14.4403" gradientUnits="userSpaceOnUse">
<stop offset="0.00132565" stop-color="#3C2200"/>
<stop offset="1" stop-color="#7A4400"/>
</linearGradient>
<linearGradient id="paint7_linear_13_240" x1="32.6353" y1="19.8849" x2="32.6353" y2="22.7122" gradientUnits="userSpaceOnUse">
<stop offset="0.00132565" stop-color="#3C2200"/>
<stop offset="1" stop-color="#512D00"/>
</linearGradient>
<radialGradient id="paint8_radial_13_240" cx="0" cy="0" r="1" gradientUnits="userSpaceOnUse" gradientTransform="translate(30.006 31.3516) scale(8.09451 9.12982)">
<stop offset="0.00132565" stop-color="#7A4400"/>
<stop offset="1" stop-color="#643800"/>
</radialGradient>
<linearGradient id="paint9_linear_13_240" x1="16.2767" y1="33.6323" x2="35.39" y2="33.6323" gradientUnits="userSpaceOnUse">
<stop offset="0.00132565" stop-color="#3C2200"/>
<stop offset="1" stop-color="#512D00"/>
</linearGradient>
</defs>
</svg>
