<svg width="50" height="50" fill="none" xmlns="http://www.w3.org/2000/svg"><path d="M25 45.833c11.506 0 20.833-9.327 20.833-20.833 0-11.506-9.327-20.833-20.833-20.833C13.494 4.167 4.167 13.494 4.167 25c0 11.506 9.327 20.833 20.833 20.833z" fill="url(#paint0_radial_13_188)"/><path opacity=".5" d="M25 45.833c11.506 0 20.833-9.327 20.833-20.833 0-11.506-9.327-20.833-20.833-20.833C13.494 4.167 4.167 13.494 4.167 25c0 11.506 9.327 20.833 20.833 20.833z" fill="url(#paint1_radial_13_188)"/><path d="M20.417 14.206c0-.834-.902-1.357-2.452-1.357-1.318 0-4.215.727-6.211 3.294-.368.475.194.737.562.427 1.23-1.047 4.515-2.384 7.083-2.103 1.027.116 1.018-.261 1.018-.261z" fill="url(#paint2_linear_13_188)"/><path d="M18.198 24.331c1.107 0 2.005-1.358 2.005-3.033 0-1.675-.898-3.033-2.005-3.033-1.108 0-2.006 1.358-2.006 3.033 0 1.675.898 3.033 2.006 3.033z" fill="url(#paint3_radial_13_188)"/><path d="M18.198 19.283c.862 0 1.608.746 2.005 1.86-.029-1.637-.91-2.955-2.005-2.955-1.095 0-1.977 1.318-2.006 2.955.397-1.104 1.143-1.86 2.006-1.86z" fill="url(#paint4_linear_13_188)"/><path d="M29.583 14.205c0-.833.901-1.356 2.452-1.356 1.318 0 4.215.726 6.211 3.294.368.475-.194.737-.562.427-1.23-1.047-4.515-2.384-7.083-2.103-1.027.116-1.018-.262-1.018-.262z" fill="url(#paint5_linear_13_188)"/><path d="M31.802 24.331c1.108 0 2.006-1.357 2.006-3.032s-.898-3.033-2.006-3.033c-1.107 0-2.005 1.358-2.005 3.033 0 1.675.898 3.032 2.005 3.032z" fill="url(#paint6_radial_13_188)"/><path d="M31.802 19.283c-.862 0-1.608.746-2.005 1.86.029-1.637.91-2.955 2.005-2.955 1.095 0 1.977 1.318 2.006 2.955-.397-1.104-1.143-1.86-2.006-1.86z" fill="url(#paint7_linear_13_188)"/><path d="M39.07 28.527a.755.755 0 00-.485-.02 49.276 49.276 0 01-13.575 1.89c-4.613 0-9.186-.64-13.576-1.89a.752.752 0 00-.484.02c-.475.194-1.231.91-.233 3.653v.01c1.473 3.508 5.378 9.67 14.283 9.67 8.886 0 12.79-6.172 14.302-9.67.989-2.752.243-3.47-.232-3.663z" fill="url(#paint8_radial_13_188)"/><path d="M25 40.882c3.692 0 6.463-1.134 8.537-2.685C31.26 37.17 28.45 36.502 25 36.502c-3.45 0-6.26.678-8.537 1.715 2.074 1.53 4.845 2.665 8.537 2.665z" fill="url(#paint9_radial_13_188)"/><path d="M38.789 28.469c-.03 0-.059 0-.097.01a49.425 49.425 0 01-13.702 1.928c-4.66 0-9.263-.65-13.701-1.928-.03-.01-.059-.01-.097-.01-.3.029-1.735.33-.504 3.72v.01c.6 1.415 1.599 3.266 3.159 4.962-1.463-1.735.339-2.694 3.546-2.306 3.208.387 7.597.397 7.597.397s4.38-.01 7.597-.398c3.207-.387 5.01.572 3.547 2.307 1.56-1.696 2.558-3.547 3.158-4.962v-.01c1.231-3.4-.203-3.7-.503-3.72z" fill="url(#paint10_linear_13_188)"/><path d="M36.318 33.236a2.863 2.863 0 002.258-2.529l.116-1.22A50.481 50.481 0 0125 31.375c-4.651 0-9.254-.64-13.692-1.89l.116 1.221c.117 1.24 1.037 2.258 2.258 2.53 3.702.803 7.5 1.2 11.318 1.2a53.96 53.96 0 0011.318-1.2z" fill="url(#paint11_radial_13_188)"/><defs><radialGradient id="paint0_radial_13_188" cx="0" cy="0" r="1" gradientUnits="userSpaceOnUse" gradientTransform="translate(20.901 16.557) scale(25.1327)"><stop stop-color="#FFDF30"/><stop offset="1" stop-color="#FFB82E"/></radialGradient><radialGradient id="paint1_radial_13_188" cx="0" cy="0" r="1" gradientUnits="userSpaceOnUse" gradientTransform="translate(20.901 16.557) scale(19.773)"><stop stop-color="#FFE95F"/><stop offset="1" stop-color="#FFBB47" stop-opacity="0"/></radialGradient><radialGradient id="paint3_radial_13_188" cx="0" cy="0" r="1" gradientUnits="userSpaceOnUse" gradientTransform="matrix(.81858 2.8275 -1.82934 .5296 17.59 21.369)"><stop offset=".001" stop-color="#7A4400"/><stop offset="1" stop-color="#643800"/></radialGradient><radialGradient id="paint6_radial_13_188" cx="0" cy="0" r="1" gradientUnits="userSpaceOnUse" gradientTransform="rotate(73.854 1.38 31.438) scale(2.94359 1.90446)"><stop offset=".001" stop-color="#7A4400"/><stop offset="1" stop-color="#643800"/></radialGradient><radialGradient id="paint8_radial_13_188" cx="0" cy="0" r="1" gradientUnits="userSpaceOnUse" gradientTransform="translate(25 35.168) scale(11.4767)"><stop offset=".001" stop-color="#7A4400"/><stop offset="1" stop-color="#643800"/></radialGradient><radialGradient id="paint9_radial_13_188" cx="0" cy="0" r="1" gradientUnits="userSpaceOnUse" gradientTransform="matrix(9.51167 0 0 2.87538 25.172 39.205)"><stop offset=".248" stop-color="red"/><stop offset="1" stop-color="#C10000"/></radialGradient><radialGradient id="paint11_radial_13_188" cx="0" cy="0" r="1" gradientUnits="userSpaceOnUse" gradientTransform="translate(25 31.966) scale(25.1687)"><stop offset=".001" stop-color="#fff"/><stop offset="1" stop-color="#A8BBBD"/></radialGradient><linearGradient id="paint2_linear_13_188" x1="16.023" y1="15.602" x2="16.023" y2="13.407" gradientUnits="userSpaceOnUse"><stop offset=".001" stop-color="#3C2200"/><stop offset="1" stop-color="#7A4400"/></linearGradient><linearGradient id="paint4_linear_13_188" x1="18.198" y1="18.243" x2="18.198" y2="21.071" gradientUnits="userSpaceOnUse"><stop offset=".001" stop-color="#3C2200"/><stop offset="1" stop-color="#512D00"/></linearGradient><linearGradient id="paint5_linear_13_188" x1="33.976" y1="15.602" x2="33.976" y2="13.407" gradientUnits="userSpaceOnUse"><stop offset=".001" stop-color="#3C2200"/><stop offset="1" stop-color="#7A4400"/></linearGradient><linearGradient id="paint7_linear_13_188" x1="31.802" y1="18.243" x2="31.802" y2="21.071" gradientUnits="userSpaceOnUse"><stop offset=".001" stop-color="#3C2200"/><stop offset="1" stop-color="#512D00"/></linearGradient><linearGradient id="paint10_linear_13_188" x1="39.623" y1="32.809" x2="10.554" y2="32.809" gradientUnits="userSpaceOnUse"><stop offset=".001" stop-color="#3C2200"/><stop offset=".5" stop-color="#512D00"/><stop offset="1" stop-color="#3C2200"/></linearGradient></defs></svg>