<svg width="50" height="50" fill="none" xmlns="http://www.w3.org/2000/svg"><path d="M25 45.833c11.506 0 20.833-9.327 20.833-20.833 0-11.506-9.327-20.833-20.833-20.833C13.494 4.167 4.167 13.494 4.167 25c0 11.506 9.327 20.833 20.833 20.833z" fill="url(#paint0_radial_13_224)"/><path opacity=".5" d="M25 45.833c11.506 0 20.833-9.327 20.833-20.833 0-11.506-9.327-20.833-20.833-20.833C13.494 4.167 4.167 13.494 4.167 25c0 11.506 9.327 20.833 20.833 20.833z" fill="url(#paint1_radial_13_224)"/><path d="M21.237 15.886c.13-.99-.69-1.732-2.227-1.927-1.315-.17-4.297.325-6.666 3.125-.443.52.078.898.495.585 1.38-1.08 4.843-2.252 7.343-1.588 1.003.247 1.055-.195 1.055-.195z" fill="url(#paint2_linear_13_224)"/><path d="M18.203 25.885c1.107 0 2.005-1.358 2.005-3.034 0-1.675-.898-3.033-2.005-3.033-1.108 0-2.005 1.358-2.005 3.034 0 1.675.897 3.033 2.005 3.033z" fill="url(#paint3_radial_13_224)"/><path d="M18.203 20.846c.86 0 1.614.755 2.005 1.862-.026-1.64-.911-2.956-2.005-2.956-1.094 0-1.98 1.316-2.005 2.956.39-1.107 1.132-1.862 2.005-1.862z" fill="url(#paint4_linear_13_224)"/><path d="M31.797 25.885c1.107 0 2.005-1.358 2.005-3.034 0-1.675-.898-3.033-2.005-3.033-1.108 0-2.005 1.358-2.005 3.034 0 1.675.897 3.033 2.005 3.033z" fill="url(#paint5_radial_13_224)"/><path d="M31.797 20.925c-.86 0-1.615.755-2.005 1.862.026-1.641.911-2.956 2.005-2.956 1.094 0 1.98 1.315 2.005 2.956-.39-1.107-1.133-1.862-2.005-1.862z" fill="url(#paint6_linear_13_224)"/><path d="M28.763 15.886c-.13-.99.69-1.732 2.226-1.927 1.316-.17 4.297.325 6.667 3.125.443.52-.078.898-.495.585-1.38-1.08-4.843-2.252-7.343-1.588-1.003.247-1.055-.195-1.055-.195z" fill="url(#paint7_linear_13_224)"/><path d="M33.776 34.089H16.224a.984.984 0 01-.976-.977c0-.534.442-.977.976-.977h17.552c.534 0 .977.443.977.977a.984.984 0 01-.977.977z" fill="url(#paint8_radial_13_224)"/><path d="M16.133 32.656H33.88c.378 0 .717.222.873.534v-.078a.984.984 0 00-.977-.977H16.224a.984.984 0 00-.976.977v.078a.98.98 0 01.885-.534z" fill="url(#paint9_linear_13_224)"/><defs><radialGradient id="paint0_radial_13_224" cx="0" cy="0" r="1" gradientUnits="userSpaceOnUse" gradientTransform="translate(20.901 16.557) scale(25.1327)"><stop stop-color="#FFE030"/><stop offset="1" stop-color="#FFB92E"/></radialGradient><radialGradient id="paint1_radial_13_224" cx="0" cy="0" r="1" gradientUnits="userSpaceOnUse" gradientTransform="translate(20.901 16.557) scale(19.773)"><stop stop-color="#FFEA5F"/><stop offset="1" stop-color="#FFBC47" stop-opacity="0"/></radialGradient><radialGradient id="paint3_radial_13_224" cx="0" cy="0" r="1" gradientUnits="userSpaceOnUse" gradientTransform="matrix(.81858 2.8275 -1.82934 .5296 17.59 22.931)"><stop offset=".001" stop-color="#7A4400"/><stop offset="1" stop-color="#643800"/></radialGradient><radialGradient id="paint5_radial_13_224" cx="0" cy="0" r="1" gradientUnits="userSpaceOnUse" gradientTransform="rotate(73.854 .34 32.219) scale(2.9436 1.90446)"><stop offset=".001" stop-color="#7A4400"/><stop offset="1" stop-color="#643800"/></radialGradient><radialGradient id="paint8_radial_13_224" cx="0" cy="0" r="1" gradientUnits="userSpaceOnUse" gradientTransform="matrix(6.93064 0 0 1.24682 25 33.107)"><stop offset=".001" stop-color="#7A4400"/><stop offset="1" stop-color="#643800"/></radialGradient><linearGradient id="paint2_linear_13_224" x1="16.669" y1="16.989" x2="17.007" y2="14.377" gradientUnits="userSpaceOnUse"><stop offset=".001" stop-color="#3C2200"/><stop offset="1" stop-color="#7A4400"/></linearGradient><linearGradient id="paint4_linear_13_224" x1="18.198" y1="19.806" x2="18.198" y2="22.633" gradientUnits="userSpaceOnUse"><stop offset=".001" stop-color="#3C2200"/><stop offset="1" stop-color="#512D00"/></linearGradient><linearGradient id="paint6_linear_13_224" x1="31.802" y1="19.881" x2="31.802" y2="22.708" gradientUnits="userSpaceOnUse"><stop offset=".001" stop-color="#3C2200"/><stop offset="1" stop-color="#512D00"/></linearGradient><linearGradient id="paint7_linear_13_224" x1="33.331" y1="16.99" x2="32.994" y2="14.378" gradientUnits="userSpaceOnUse"><stop offset=".001" stop-color="#3C2200"/><stop offset="1" stop-color="#7A4400"/></linearGradient><linearGradient id="paint9_linear_13_224" x1="15.248" y1="32.656" x2="34.753" y2="32.656" gradientUnits="userSpaceOnUse"><stop offset=".001" stop-color="#3C2200"/><stop offset="1" stop-color="#512D00"/></linearGradient></defs></svg>