<svg width="50" height="50" fill="none" xmlns="http://www.w3.org/2000/svg"><path d="M24.633 45.833c11.506 0 20.834-9.327 20.834-20.833 0-11.506-9.328-20.833-20.834-20.833S3.8 13.494 3.8 25c0 11.506 9.327 20.833 20.833 20.833z" fill="url(#paint0_radial_13_187)"/><path opacity=".5" d="M24.633 45.833c11.506 0 20.834-9.327 20.834-20.833 0-11.506-9.328-20.833-20.834-20.833S3.8 13.494 3.8 25c0 11.506 9.327 20.833 20.833 20.833z" fill="url(#paint1_radial_13_187)"/><path d="M38.995 31.927c.013-.117.026-.234.04-.338a.97.97 0 00-.639-.86.982.982 0 00-.612-.026 49.074 49.074 0 01-13.15 1.797c-4.467 0-8.894-.599-13.152-1.797a.986.986 0 00-.612.026 1.01 1.01 0 00-.638.847c.013.13.026.26.052.403l.235.977c.052.182.117.377.195.586 1.458 3.411 5.26 9.414 13.932 9.414 8.66 0 12.461-6.016 13.933-9.427.065-.183.13-.352.169-.521l.247-1.08z" fill="url(#paint2_radial_13_187)"/><path d="M24.633 42.005c3.36 0 5.938-.963 7.904-2.33-2.162-1.003-4.766-1.654-7.904-1.654s-5.755.651-7.917 1.667c1.98 1.367 4.558 2.317 7.917 2.317z" fill="url(#paint3_radial_13_187)"/><path d="M38.748 32.969l.234-1.003c.026-.143.04-.273.04-.39a.987.987 0 00-1.25-.873A49.074 49.074 0 0124.62 32.5c-4.466 0-8.893-.599-13.15-1.797a.986.986 0 00-.613.026 1.01 1.01 0 00-.638.847c.013.117.026.26.04.403l.234.99c.052.182.117.377.195.573.586 1.38 1.563 3.177 3.073 4.83-1.42-1.692.325-2.617 3.463-2.239 3.125.378 7.396.39 7.396.39s4.271-.012 7.396-.39 4.883.56 3.464 2.24c1.523-1.654 2.487-3.451 3.073-4.831.078-.209.143-.39.195-.573z" fill="url(#paint4_linear_13_187)"/><path d="M24.633 33.45c-4.505 0-8.958-.598-13.268-1.796l.052.586a2.604 2.604 0 002.018 2.291 51.905 51.905 0 0011.185 1.211c4.076 0 8.112-.468 12.044-1.406a1.43 1.43 0 001.081-1.237l.143-1.432a49.828 49.828 0 01-13.255 1.784z" fill="url(#paint5_radial_13_187)"/><path d="M24.633 45.833c11.506 0 20.834-9.327 20.834-20.833 0-11.506-9.328-20.833-20.834-20.833S3.8 13.494 3.8 25c0 11.506 9.327 20.833 20.833 20.833z" fill="url(#paint6_radial_13_187)"/><path d="M24.633 45.833c11.506 0 20.834-9.327 20.834-20.833 0-11.506-9.328-20.833-20.834-20.833S3.8 13.494 3.8 25c0 11.506 9.327 20.833 20.833 20.833z" fill="url(#paint7_radial_13_187)"/><path opacity=".24" d="M41.482 22.565c.195-.026.378-.039.56-.052 0 .013-.013.04-.013.065l-.052 7.031a.682.682 0 01-1.107.534l-5.547-4.31a.298.298 0 00-.273-.052l-6.706 2.123a.68.68 0 01-.846-.886l2.317-6.419a.673.673 0 00-.09-.625l-3.972-5.547a.711.711 0 01-.104-.599l.664.065c6.198.078 6.367 9.753 15.17 8.672z" fill="url(#paint8_radial_13_187)"/><path d="M37.758 7.76l-4.18 5.756a.27.27 0 01-.247.117l-7.11-.182c-.572-.014-.91.637-.572 1.093l4.062 5.586c.13.183.17.417.091.638l-2.304 6.51a.69.69 0 00.872.886l6.758-2.2a.298.298 0 01.273.052l5.638 4.323a.686.686 0 001.107-.547v-7.11c0-.104.052-.195.13-.247l5.86-4.024c.469-.325.364-1.054-.182-1.224l-6.758-2.2a.293.293 0 01-.196-.195l-2.018-6.823a.691.691 0 00-1.224-.209z" fill="url(#paint9_radial_13_187)"/><path d="M44.138 19.922c1.524-1.08 3.62-2.24 3.334-2.89l.495.156a.69.69 0 01.182 1.224l-5.86 4.023a.296.296 0 00-.13.248c.026-1.25.456-1.693 1.98-2.76z" fill="url(#paint10_radial_13_187)"/><path d="M38.982 7.969L41 14.779c.026.09.105.169.196.195l6.77 2.2a.69.69 0 01.183 1.224l-5.69 3.92a.703.703 0 00-.3.573v6.9a.686.686 0 01-1.106.547l-5.639-4.322a.298.298 0 00-.273-.052l-6.758 2.2c-.547.182-1.054-.352-.872-.885l2.357-6.706c.039-.091.013-.195-.04-.274l-4.18-5.755a.686.686 0 01.574-1.094l7.11.183c.103 0 .194-.04.247-.117l4.18-5.756a.691.691 0 011.223.209z" fill="url(#paint11_radial_13_187)"/><path d="M38.982 7.969L41 14.779c.026.09.105.169.196.195l6.77 2.2a.69.69 0 01.183 1.224l-5.69 3.92a.703.703 0 00-.3.573v6.9a.686.686 0 01-1.106.547l-5.639-4.322a.298.298 0 00-.273-.052l-6.758 2.2c-.547.182-1.054-.352-.872-.885l2.357-6.706c.039-.091.013-.195-.04-.274l-4.18-5.755a.686.686 0 01.574-1.094l7.11.183c.103 0 .194-.04.247-.117l4.18-5.756a.691.691 0 011.223.209z" fill="url(#paint12_radial_13_187)"/><path opacity=".24" d="M38.982 7.969L41 14.779c.026.09.105.169.196.195l6.77 2.2a.69.69 0 01.183 1.224l-5.69 3.92a.703.703 0 00-.3.573v6.9a.686.686 0 01-1.106.547l-5.639-4.322a.298.298 0 00-.273-.052l-6.758 2.2c-.547.182-1.054-.352-.872-.885l2.357-6.706c.039-.091.013-.195-.04-.274l-4.18-5.755a.686.686 0 01.574-1.094l7.11.183c.103 0 .194-.04.247-.117l4.18-5.756a.691.691 0 011.223.209z" fill="url(#paint13_radial_13_187)"/><path opacity=".24" d="M38.982 7.969L41 14.779c.026.09.105.169.196.195l6.77 2.2a.69.69 0 01.183 1.224l-5.69 3.92a.703.703 0 00-.3.573v6.9a.686.686 0 01-1.106.547l-5.639-4.322a.298.298 0 00-.273-.052l-6.758 2.2c-.547.182-1.054-.352-.872-.885l2.357-6.706c.039-.091.013-.195-.04-.274l-4.18-5.755a.686.686 0 01.574-1.094l7.11.183c.103 0 .194-.04.247-.117l4.18-5.756a.691.691 0 011.223.209z" fill="url(#paint14_radial_13_187)"/><path d="M47.967 17.174l-6.771-2.187A.293.293 0 0141 14.79L38.982 7.97s-.338.299.065 1.744c.274.938.95 3.529 1.341 4.87.222.755.73.86 1.485 1.094l5 1.536s.56.143 1.094-.039z" fill="url(#paint15_radial_13_187)"/><path d="M27.498 27.279a.69.69 0 00.872.885l6.758-2.2a.298.298 0 01.273.052l5.638 4.323a.686.686 0 001.107-.547v-7.11c0-.104.052-.195.13-.247l5.86-4.024c.469-.325.364-1.054-.182-1.224l-6.758-2.2a.293.293 0 01-.196-.195l-2.018-6.823c-.17-.547-.885-.677-1.224-.209l-4.18 5.756a.27.27 0 01-.247.117l-7.11-.182c-.572-.014-.91.637-.572 1.093l4.062 5.586c.13.183.17.417.091.638l-2.304 6.51zm.364.13l2.305-6.51a1.105 1.105 0 00-.143-1.003l-4.063-5.573a.278.278 0 01-.026-.313.286.286 0 01.26-.156h.014l7.11.182a.676.676 0 00.572-.286l4.18-5.755c.078-.104.169-.13.234-.13h.052c.052.013.196.052.235.208l2.018 6.81c.065.221.234.39.443.456l6.757 2.2a.309.309 0 01.209.247.273.273 0 01-.13.287l-5.86 4.023a.703.703 0 00-.3.573v7.11c0 .169-.117.247-.169.273a.279.279 0 01-.312-.026l-5.638-4.323a.662.662 0 00-.638-.104l-6.758 2.2a.306.306 0 01-.313-.078c0-.039-.09-.156-.039-.312z" fill="url(#paint16_radial_13_187)"/><path opacity=".24" d="M7.784 22.565c-.195-.026-.378-.039-.56-.052 0 .013.013.04.013.065l.052 7.031c0 .573.651.886 1.107.534l5.547-4.31a.298.298 0 01.273-.052l6.706 2.123a.68.68 0 00.846-.886l-2.317-6.432a.673.673 0 01.09-.625l3.972-5.547a.711.711 0 00.104-.599l-.664.065c-6.198.091-6.367 9.766-15.169 8.685z" fill="url(#paint17_radial_13_187)"/><path d="M11.508 7.76l4.18 5.756a.27.27 0 00.247.117l7.11-.182c.573-.014.911.637.573 1.093l-4.063 5.586a.694.694 0 00-.091.638l2.305 6.51a.69.69 0 01-.873.886l-6.758-2.2a.298.298 0 00-.273.052l-5.638 4.323a.686.686 0 01-1.107-.547v-7.11a.296.296 0 00-.13-.247L1.13 18.41c-.468-.325-.364-1.054.183-1.224l6.758-2.2a.294.294 0 00.195-.195l2.018-6.81c.17-.56.886-.69 1.224-.222z" fill="url(#paint18_radial_13_187)"/><path d="M5.141 19.922c-1.523-1.08-3.62-2.24-3.333-2.89l-.495.156a.69.69 0 00-.182 1.224l5.859 4.023c.078.052.13.143.13.248-.026-1.25-.469-1.693-1.979-2.76z" fill="url(#paint19_radial_13_187)"/><path d="M20.35 17.305c1.08-1.524 2.656-3.32 2.174-3.841l.52-.013c.573-.013.912.638.573 1.094L19.451 20.3c-.052.078-.078.182-.04.273-.403-1.185-.142-1.745.938-3.268z" fill="url(#paint20_radial_13_187)"/><path d="M23.045 13.45l-7.11.183c-.104 0-.195-.04-.247-.117l-4.18-5.756s-.221.404.651 1.615c.56.794 2.07 3.008 2.89 4.14.457.651.964.573 1.759.534l5.234-.221c-.013.013.573-.04 1.003-.378z" fill="url(#paint21_radial_13_187)"/><path d="M10.284 7.969l-2.018 6.81a.293.293 0 01-.195.195l-6.758 2.2a.69.69 0 00-.182 1.224l5.69 3.92c.182.13.3.338.3.573v6.9c0 .573.65.9 1.106.547l5.638-4.322a.298.298 0 01.273-.052l6.758 2.2c.547.182 1.055-.352.873-.885l-2.37-6.706c-.04-.091-.013-.195.039-.274l4.18-5.755a.686.686 0 00-.573-1.094l-7.11.183c-.104 0-.195-.04-.247-.117l-4.18-5.756c-.338-.468-1.054-.338-1.224.209z" fill="url(#paint22_radial_13_187)"/><path d="M10.284 7.969l-2.018 6.81a.293.293 0 01-.195.195l-6.758 2.2a.69.69 0 00-.182 1.224l5.69 3.92c.182.13.3.338.3.573v6.9c0 .573.65.9 1.106.547l5.638-4.322a.298.298 0 01.273-.052l6.758 2.2c.547.182 1.055-.352.873-.885l-2.37-6.706c-.04-.091-.013-.195.039-.274l4.18-5.755a.686.686 0 00-.573-1.094l-7.11.183c-.104 0-.195-.04-.247-.117l-4.18-5.756c-.338-.468-1.054-.338-1.224.209z" fill="url(#paint23_radial_13_187)"/><path opacity=".24" d="M10.284 7.969l-2.018 6.81a.293.293 0 01-.195.195l-6.758 2.2a.69.69 0 00-.182 1.224l5.69 3.92c.182.13.3.338.3.573v6.9c0 .573.65.9 1.106.547l5.638-4.322a.298.298 0 01.273-.052l6.758 2.2c.547.182 1.055-.352.873-.885l-2.37-6.706c-.04-.091-.013-.195.039-.274l4.18-5.755a.686.686 0 00-.573-1.094l-7.11.183c-.104 0-.195-.04-.247-.117l-4.18-5.756c-.338-.468-1.054-.338-1.224.209z" fill="url(#paint24_radial_13_187)"/><path opacity=".24" d="M10.284 7.969l-2.018 6.81a.293.293 0 01-.195.195l-6.758 2.2a.69.69 0 00-.182 1.224l5.69 3.92c.182.13.3.338.3.573v6.9c0 .573.65.9 1.106.547l5.638-4.322a.298.298 0 01.273-.052l6.758 2.2c.547.182 1.055-.352.873-.885l-2.37-6.706c-.04-.091-.013-.195.039-.274l4.18-5.755a.686.686 0 00-.573-1.094l-7.11.183c-.104 0-.195-.04-.247-.117l-4.18-5.756c-.338-.468-1.054-.338-1.224.209z" fill="url(#paint25_radial_13_187)"/><path d="M1.313 17.174l6.758-2.2a.293.293 0 00.195-.196l2.018-6.81s.339.3-.065 1.745c-.273.938-.95 3.529-1.34 4.87-.222.755-.73.86-1.485 1.094l-5 1.536s-.56.143-1.081-.039z" fill="url(#paint26_radial_13_187)"/><path d="M28.93 17.305c-1.08-1.524-2.656-3.32-2.174-3.841l-.521-.013c-.573-.013-.912.638-.573 1.094l4.18 5.755c.052.078.078.182.039.273.377-1.185.117-1.745-.951-3.268z" fill="url(#paint27_radial_13_187)"/><path d="M15.297 14.844c.847 1.432-.56 3.815-3.125 5.312-2.565 1.498-5.325 1.563-6.158.13-.834-1.432.56-3.815 3.125-5.312 2.565-1.497 5.312-1.55 6.158-.13z" fill="url(#paint28_radial_13_187)"/><path d="M39.868 14.14c.846 1.433-.56 3.816-3.125 5.313-2.566 1.497-5.326 1.563-6.16.13-.833-1.432.56-3.815 3.126-5.312 2.565-1.498 5.312-1.563 6.159-.13z" fill="url(#paint29_radial_13_187)"/><path d="M19.477 20.768a.699.699 0 01.091-.638l4.05-5.586a.686.686 0 00-.573-1.094l-7.11.183c-.104 0-.195-.04-.247-.117l-4.18-5.756c-.338-.468-1.054-.338-1.224.209l-2.018 6.81a.293.293 0 01-.195.195l-6.758 2.2a.69.69 0 00-.182 1.224l5.859 4.024c.078.052.13.143.13.247v7.11c0 .573.651.898 1.107.547l5.638-4.323a.298.298 0 01.273-.052l6.758 2.2c.547.182 1.055-.352.873-.885l-2.292-6.498zm1.862 6.953a.296.296 0 01-.313.078l-6.757-2.2a.737.737 0 00-.638.104L7.993 30.04a.28.28 0 01-.313.026.299.299 0 01-.17-.273v-7.11a.722.722 0 00-.299-.573l-5.86-4.023c-.142-.091-.13-.234-.13-.287.014-.052.04-.195.21-.247l6.757-2.2a.675.675 0 00.443-.456l2.018-6.81a.312.312 0 01.234-.208h.052c.065 0 .17.026.235.13l4.18 5.755a.71.71 0 00.572.286l7.11-.182h.013c.156 0 .234.117.26.156a.28.28 0 01-.026.313l-4.063 5.586a1.1 1.1 0 00-.143 1.002l2.305 6.51c.078.131 0 .248-.04.287z" fill="url(#paint30_radial_13_187)"/><defs><radialGradient id="paint0_radial_13_187" cx="0" cy="0" r="1" gradientUnits="userSpaceOnUse" gradientTransform="translate(20.537 16.557) scale(25.1327)"><stop stop-color="#FFE030"/><stop offset="1" stop-color="#FFB92E"/></radialGradient><radialGradient id="paint1_radial_13_187" cx="0" cy="0" r="1" gradientUnits="userSpaceOnUse" gradientTransform="translate(20.537 16.557) scale(19.773)"><stop stop-color="#FFEA5F"/><stop offset="1" stop-color="#FFBC47" stop-opacity="0"/></radialGradient><radialGradient id="paint2_radial_13_187" cx="0" cy="0" r="1" gradientUnits="userSpaceOnUse" gradientTransform="matrix(11.0697 0 0 11.0696 24.634 36.814)"><stop offset=".001" stop-color="#7A4400"/><stop offset="1" stop-color="#643800"/></radialGradient><radialGradient id="paint3_radial_13_187" cx="0" cy="0" r="1" gradientUnits="userSpaceOnUse" gradientTransform="matrix(8.80736 0 0 2.66299 24.794 40.494)"><stop offset=".248" stop-color="red"/><stop offset="1" stop-color="#C20000"/></radialGradient><radialGradient id="paint5_radial_13_187" cx="0" cy="0" r="1" gradientUnits="userSpaceOnUse" gradientTransform="translate(24.635 33.697) scale(24.279)"><stop offset=".001" stop-color="#fff"/><stop offset="1" stop-color="#A9BCBE"/></radialGradient><radialGradient id="paint6_radial_13_187" cx="0" cy="0" r="1" gradientUnits="userSpaceOnUse" gradientTransform="rotate(34.229 -17.524 83.253) scale(11.8227 11.8951)"><stop stop-color="#FF8000" stop-opacity=".5"/><stop offset=".995" stop-color="#FF8000" stop-opacity="0"/></radialGradient><radialGradient id="paint7_radial_13_187" cx="0" cy="0" r="1" gradientUnits="userSpaceOnUse" gradientTransform="matrix(-9.77496 6.6503 -6.69102 -9.83482 5.48 24.28)"><stop stop-color="#FF8000" stop-opacity=".5"/><stop offset=".995" stop-color="#FF8000" stop-opacity="0"/></radialGradient><radialGradient id="paint8_radial_13_187" cx="0" cy="0" r="1" gradientUnits="userSpaceOnUse" gradientTransform="matrix(-17.5252 0 0 -17.5251 34.545 21.367)"><stop stop-color="#fff"/><stop offset="1" stop-color="#fff" stop-opacity="0"/></radialGradient><radialGradient id="paint9_radial_13_187" cx="0" cy="0" r="1" gradientUnits="userSpaceOnUse" gradientTransform="rotate(-170.266 19.45 6.512) scale(11.3559)"><stop stop-color="#FFEA5F"/><stop offset=".49" stop-color="#FFE95D"/><stop offset=".667" stop-color="#FFE756"/><stop offset=".793" stop-color="#FFE34B"/><stop offset=".895" stop-color="#FEDD3A"/><stop offset=".981" stop-color="#FED524"/><stop offset="1" stop-color="#FED31E"/></radialGradient><radialGradient id="paint10_radial_13_187" cx="0" cy="0" r="1" gradientUnits="userSpaceOnUse" gradientTransform="matrix(-1.37184 -1.5903 4.28204 -3.6938 45.024 22.056)"><stop stop-color="#D86D00"/><stop offset=".329" stop-color="#DC6C0A" stop-opacity=".671"/><stop offset=".879" stop-color="#E86823" stop-opacity=".121"/><stop offset="1" stop-color="#EB672A" stop-opacity="0"/></radialGradient><radialGradient id="paint11_radial_13_187" cx="0" cy="0" r="1" gradientUnits="userSpaceOnUse" gradientTransform="matrix(5.98414 -1.7818 .84436 2.83575 31.924 29.032)"><stop stop-color="#D86D00"/><stop offset=".329" stop-color="#DC6C0A" stop-opacity=".671"/><stop offset=".879" stop-color="#E86823" stop-opacity=".121"/><stop offset="1" stop-color="#EB672A" stop-opacity="0"/></radialGradient><radialGradient id="paint12_radial_13_187" cx="0" cy="0" r="1" gradientUnits="userSpaceOnUse" gradientTransform="matrix(8.0588 1.78788 -1.8329 8.26178 34.042 32.8)"><stop stop-color="#D86D00"/><stop offset=".329" stop-color="#DC6C0A" stop-opacity=".671"/><stop offset=".879" stop-color="#E86823" stop-opacity=".121"/><stop offset="1" stop-color="#EB672A" stop-opacity="0"/></radialGradient><radialGradient id="paint13_radial_13_187" cx="0" cy="0" r="1" gradientUnits="userSpaceOnUse" gradientTransform="matrix(7.459 4.5326 -3.42595 5.63787 32.92 23.283)"><stop stop-color="#FFA754"/><stop offset=".37" stop-color="#FFB152" stop-opacity=".63"/><stop offset=".987" stop-color="#FFCA4B" stop-opacity=".013"/><stop offset="1" stop-color="#FFCB4B" stop-opacity="0"/></radialGradient><radialGradient id="paint14_radial_13_187" cx="0" cy="0" r="1" gradientUnits="userSpaceOnUse" gradientTransform="rotate(31.286 -9.606 75.702) scale(5.25881 3.97486)"><stop stop-color="#fff"/><stop offset="1" stop-color="#fff" stop-opacity="0"/></radialGradient><radialGradient id="paint15_radial_13_187" cx="0" cy="0" r="1" gradientUnits="userSpaceOnUse" gradientTransform="rotate(56.561 12.356 47.451) scale(8.22519 5.6606)"><stop stop-color="#ED9900"/><stop offset="1" stop-color="#ED9900" stop-opacity="0"/></radialGradient><radialGradient id="paint16_radial_13_187" cx="0" cy="0" r="1" gradientUnits="userSpaceOnUse" gradientTransform="rotate(180 18.239 9.422) scale(9.73193)"><stop stop-color="#A3541E" stop-opacity=".5"/><stop offset=".511" stop-color="#A5551D" stop-opacity=".755"/><stop offset=".695" stop-color="#AC5819" stop-opacity=".848"/><stop offset=".826" stop-color="#B75E12" stop-opacity=".913"/><stop offset=".931" stop-color="#C86609" stop-opacity=".966"/><stop offset="1" stop-color="#D86D00"/></radialGradient><radialGradient id="paint17_radial_13_187" cx="0" cy="0" r="1" gradientUnits="userSpaceOnUse" gradientTransform="translate(14.726 21.367) scale(17.5252)"><stop stop-color="#fff"/><stop offset="1" stop-color="#fff" stop-opacity="0"/></radialGradient><radialGradient id="paint18_radial_13_187" cx="0" cy="0" r="1" gradientUnits="userSpaceOnUse" gradientTransform="rotate(-9.734 101.108 -60.904) scale(11.3559)"><stop stop-color="#FFEA5F"/><stop offset=".49" stop-color="#FFE95D"/><stop offset=".667" stop-color="#FFE756"/><stop offset=".793" stop-color="#FFE34B"/><stop offset=".895" stop-color="#FEDD3A"/><stop offset=".981" stop-color="#FED524"/><stop offset="1" stop-color="#FED31E"/></radialGradient><radialGradient id="paint19_radial_13_187" cx="0" cy="0" r="1" gradientUnits="userSpaceOnUse" gradientTransform="matrix(1.37185 -1.5903 4.28201 3.69384 4.249 22.056)"><stop stop-color="#D86D00"/><stop offset=".329" stop-color="#DC6C0A" stop-opacity=".671"/><stop offset=".879" stop-color="#E86823" stop-opacity=".121"/><stop offset="1" stop-color="#EB672A" stop-opacity="0"/></radialGradient><radialGradient id="paint20_radial_13_187" cx="0" cy="0" r="1" gradientUnits="userSpaceOnUse" gradientTransform="matrix(-1.82353 -1.0422 2.80603 -4.90974 21.727 19.393)"><stop stop-color="#D86D00"/><stop offset=".329" stop-color="#DC6C0A" stop-opacity=".671"/><stop offset=".879" stop-color="#E86823" stop-opacity=".121"/><stop offset="1" stop-color="#EB672A" stop-opacity="0"/></radialGradient><radialGradient id="paint21_radial_13_187" cx="0" cy="0" r="1" gradientUnits="userSpaceOnUse" gradientTransform="rotate(37.095 -3.602 31.594) scale(8.22398 5.66053)"><stop stop-color="#ED9900"/><stop offset="1" stop-color="#ED9900" stop-opacity="0"/></radialGradient><radialGradient id="paint22_radial_13_187" cx="0" cy="0" r="1" gradientUnits="userSpaceOnUse" gradientTransform="rotate(-163.419 10.79 13.25) scale(6.24378 2.95879)"><stop stop-color="#D86D00"/><stop offset=".329" stop-color="#DC6C0A" stop-opacity=".671"/><stop offset=".879" stop-color="#E86823" stop-opacity=".121"/><stop offset="1" stop-color="#EB672A" stop-opacity="0"/></radialGradient><radialGradient id="paint23_radial_13_187" cx="0" cy="0" r="1" gradientUnits="userSpaceOnUse" gradientTransform="matrix(-8.0588 1.78792 -1.83295 -8.26177 15.232 32.8)"><stop stop-color="#D86D00"/><stop offset=".329" stop-color="#DC6C0A" stop-opacity=".671"/><stop offset=".879" stop-color="#E86823" stop-opacity=".121"/><stop offset="1" stop-color="#EB672A" stop-opacity="0"/></radialGradient><radialGradient id="paint24_radial_13_187" cx="0" cy="0" r="1" gradientUnits="userSpaceOnUse" gradientTransform="rotate(148.714 4.917 13.933) scale(8.72818 6.59718)"><stop stop-color="#FFA754"/><stop offset=".37" stop-color="#FFB152" stop-opacity=".63"/><stop offset=".987" stop-color="#FFCA4B" stop-opacity=".013"/><stop offset="1" stop-color="#FFCB4B" stop-opacity="0"/></radialGradient><radialGradient id="paint25_radial_13_187" cx="0" cy="0" r="1" gradientUnits="userSpaceOnUse" gradientTransform="rotate(148.714 3.44 9.59) scale(5.25881 3.97486)"><stop stop-color="#fff"/><stop offset="1" stop-color="#fff" stop-opacity="0"/></radialGradient><radialGradient id="paint26_radial_13_187" cx="0" cy="0" r="1" gradientUnits="userSpaceOnUse" gradientTransform="rotate(123.439 -.891 6.606) scale(8.22518 5.6606)"><stop stop-color="#ED9900"/><stop offset="1" stop-color="#ED9900" stop-opacity="0"/></radialGradient><radialGradient id="paint27_radial_13_187" cx="0" cy="0" r="1" gradientUnits="userSpaceOnUse" gradientTransform="rotate(-29.749 50.279 -42.163) scale(2.10034 5.65503)"><stop stop-color="#D86D00"/><stop offset=".329" stop-color="#DC6C0A" stop-opacity=".671"/><stop offset=".879" stop-color="#E86823" stop-opacity=".121"/><stop offset="1" stop-color="#EB672A" stop-opacity="0"/></radialGradient><radialGradient id="paint28_radial_13_187" cx="0" cy="0" r="1" gradientUnits="userSpaceOnUse" gradientTransform="matrix(4.60071 -2.8648 1.5419 2.4762 10.655 17.538)"><stop stop-color="#fff" stop-opacity=".5"/><stop offset=".995" stop-color="#fff" stop-opacity="0"/></radialGradient><radialGradient id="paint29_radial_13_187" cx="0" cy="0" r="1" gradientUnits="userSpaceOnUse" gradientTransform="matrix(4.60072 -2.86481 1.5419 2.47622 35.221 16.822)"><stop stop-color="#fff" stop-opacity=".5"/><stop offset=".995" stop-color="#fff" stop-opacity="0"/></radialGradient><radialGradient id="paint30_radial_13_187" cx="0" cy="0" r="1" gradientUnits="userSpaceOnUse" gradientTransform="translate(12.794 18.843) scale(9.73193)"><stop stop-color="#A3541E" stop-opacity=".5"/><stop offset=".511" stop-color="#A5551D" stop-opacity=".755"/><stop offset=".695" stop-color="#AC5819" stop-opacity=".848"/><stop offset=".826" stop-color="#B75E12" stop-opacity=".913"/><stop offset=".931" stop-color="#C86609" stop-opacity=".966"/><stop offset="1" stop-color="#D86D00"/></radialGradient><linearGradient id="paint4_linear_13_187" x1="38.874" y1="34.524" x2="10.571" y2="34.524" gradientUnits="userSpaceOnUse"><stop offset=".001" stop-color="#3C2200"/><stop offset=".5" stop-color="#512D00"/><stop offset="1" stop-color="#3C2200"/></linearGradient></defs></svg>