<svg width="50" height="50" fill="none" xmlns="http://www.w3.org/2000/svg"><path d="M25.833 45.833c11.506 0 20.834-9.327 20.834-20.833 0-11.506-9.328-20.833-20.834-20.833S5 13.494 5 25c0 11.506 9.327 20.833 20.833 20.833z" fill="url(#paint0_radial_13_240)"/><path opacity=".5" d="M25.833 45.833c11.506 0 20.834-9.327 20.834-20.833 0-11.506-9.328-20.833-20.834-20.833S5 13.494 5 25c0 11.506 9.327 20.833 20.833 20.833z" fill="url(#paint1_radial_13_240)"/><path d="M21.328 15.091c-.052-1.002-.99-1.575-2.539-1.497-1.315.078-4.167 1.107-5.99 4.284-.338.585.248.872.586.481 1.16-1.315 4.35-3.099 6.927-2.903 1.042.078 1.016-.365 1.016-.365z" fill="url(#paint2_linear_13_240)"/><path d="M19.037 25.899c1.107 0 2.005-1.359 2.005-3.034 0-1.676-.898-3.034-2.006-3.034-1.107 0-2.005 1.358-2.005 3.034 0 1.675.898 3.034 2.006 3.034z" fill="url(#paint3_radial_13_240)"/><path d="M19.037 20.86c.859 0 1.614.755 2.005 1.861-.026-1.64-.912-2.955-2.006-2.955-1.093 0-1.979 1.315-2.005 2.956.39-1.12 1.133-1.863 2.006-1.863z" fill="url(#paint4_linear_13_240)"/><path d="M32.63 25.899c1.108 0 2.005-1.359 2.005-3.034 0-1.676-.897-3.034-2.005-3.034-1.107 0-2.005 1.358-2.005 3.034 0 1.675.898 3.034 2.005 3.034z" fill="url(#paint5_radial_13_240)"/><path d="M30.338 15.156c.052-1.002.99-1.575 2.54-1.497 1.315.078 4.166 1.107 5.99 4.284.338.586-.248.872-.587.482-1.159-1.316-4.349-3.1-6.927-2.904-1.042.091-1.016-.365-1.016-.365z" fill="url(#paint6_linear_13_240)"/><path d="M32.63 20.925c-.86 0-1.614.755-2.005 1.862.026-1.641.912-2.956 2.005-2.956 1.094 0 1.98 1.315 2.005 2.956-.39-1.107-1.132-1.862-2.005-1.862z" fill="url(#paint7_linear_13_240)"/><path d="M35.026 36.979a.98.98 0 00.17-1.341c-1.837-2.474-4.766-4.7-9.363-4.7-4.596 0-7.526 2.226-9.362 4.7a.979.979 0 101.576 1.159c1.575-2.084 3.984-3.828 7.773-3.828 3.79 0 6.211 1.744 7.774 3.828.351.455.99.534 1.432.182z" fill="url(#paint8_radial_13_240)"/><path d="M35.378 36.328a.962.962 0 00-.183-.69c-1.836-2.474-4.765-4.7-9.362-4.7-4.596 0-7.526 2.226-9.362 4.7a.963.963 0 00-.182.69c1.992-2.422 5.013-4.466 9.544-4.466 4.532 0 7.565 2.044 9.545 4.466z" fill="url(#paint9_linear_13_240)"/><defs><radialGradient id="paint0_radial_13_240" cx="0" cy="0" r="1" gradientUnits="userSpaceOnUse" gradientTransform="translate(21.734 16.561) scale(25.1327)"><stop stop-color="#FFE030"/><stop offset="1" stop-color="#FFB92E"/></radialGradient><radialGradient id="paint1_radial_13_240" cx="0" cy="0" r="1" gradientUnits="userSpaceOnUse" gradientTransform="translate(21.734 16.561) scale(19.773)"><stop stop-color="#FFEA5F"/><stop offset="1" stop-color="#FFBC47" stop-opacity="0"/></radialGradient><radialGradient id="paint3_radial_13_240" cx="0" cy="0" r="1" gradientUnits="userSpaceOnUse" gradientTransform="rotate(73.854 -6.05 23.728) scale(2.9436 1.90446)"><stop offset=".001" stop-color="#7A4400"/><stop offset="1" stop-color="#643800"/></radialGradient><radialGradient id="paint5_radial_13_240" cx="0" cy="0" r="1" gradientUnits="userSpaceOnUse" gradientTransform="rotate(73.854 .752 32.779) scale(2.9436 1.90446)"><stop offset=".001" stop-color="#7A4400"/><stop offset="1" stop-color="#643800"/></radialGradient><radialGradient id="paint8_radial_13_240" cx="0" cy="0" r="1" gradientUnits="userSpaceOnUse" gradientTransform="matrix(8.09451 0 0 9.12982 30.006 31.352)"><stop offset=".001" stop-color="#7A4400"/><stop offset="1" stop-color="#643800"/></radialGradient><linearGradient id="paint2_linear_13_240" x1="17.035" y1="16.995" x2="16.891" y2="14.365" gradientUnits="userSpaceOnUse"><stop offset=".001" stop-color="#3C2200"/><stop offset="1" stop-color="#7A4400"/></linearGradient><linearGradient id="paint4_linear_13_240" x1="19.032" y1="19.81" x2="19.032" y2="22.638" gradientUnits="userSpaceOnUse"><stop offset=".001" stop-color="#3C2200"/><stop offset="1" stop-color="#512D00"/></linearGradient><linearGradient id="paint6_linear_13_240" x1="34.643" y1="17.07" x2="34.788" y2="14.44" gradientUnits="userSpaceOnUse"><stop offset=".001" stop-color="#3C2200"/><stop offset="1" stop-color="#7A4400"/></linearGradient><linearGradient id="paint7_linear_13_240" x1="32.635" y1="19.885" x2="32.635" y2="22.712" gradientUnits="userSpaceOnUse"><stop offset=".001" stop-color="#3C2200"/><stop offset="1" stop-color="#512D00"/></linearGradient><linearGradient id="paint9_linear_13_240" x1="16.277" y1="33.632" x2="35.39" y2="33.632" gradientUnits="userSpaceOnUse"><stop offset=".001" stop-color="#3C2200"/><stop offset="1" stop-color="#512D00"/></linearGradient></defs></svg>